<svg xmlns="http://www.w3.org/2000/svg" xml:space="preserve" viewBox="0 0 2367 1014"><path fill="#060708" d="M947.016 4.78c.983-.11 1.967-.316 2.95-.316 40.783-.011 81.566-.004 122.72.507.664 1.196.958 1.886 1.728 3.691l.582-3.9c.981-.11 1.962-.316 2.943-.316 85.05.005 170.1.026 255.585.507a29.7 29.7 0 0 1-1.966 8.921c-2.814.017-5.186-.019-7.558-.43-.2-1.614-.4-2.855-.599-4.095l-1.521.017c-.293 1.482-.587 2.963-1.346 4.494-20.155.018-39.845-.014-59.548-.426-2.513-5.864-7.69-3.754-11.588-3.777-2.393-.014-7.457-1.519-7.772 4.202-1.124.008-1.874-.027-2.625-.463.141-2.726-.14-4.512-3.248-4.43-3.459.092-3.889 2.168-4.152 4.899-1.466.013-2.533-.019-3.61-.4-1.036-1.601-2.065-2.855-3.095-4.109-.965 1.484-1.93 2.969-3.362 4.501-42.489.017-84.511-.014-126.547-.389-.542-.98-1.07-1.616-1.598-2.253-.463.87-.926 1.74-1.855 2.656-8.49.008-16.512-.032-24.55-.435-2.255-5.23-6.718-3.062-11.008-4.808 1.463 2.52 2.238 3.854 2.588 5.235-2.135.02-3.845-.008-5.508-.377-.383-1.38-.662-3.204-1.27-3.321-2.682-.516-4.93.135-5.242 3.676-3.818.024-7.181-.003-10.546-.398-.461-1.308-.92-2.248-1.378-3.187-.54 1.19-1.08 2.38-2.086 3.616-39.152.008-77.837-.031-116.47-.418-.199-1.676-.45-3.004-.7-4.333-1.081.75-2.32 1.361-3.179 2.313-.423.468-.147 1.57-.653 2.432-39.705.071-78.943.122-118.182.108-36.116-.012-72.233-.095-108.36-.505-1.448-1.88-2.887-3.403-4.326-4.926l-1.213 1.03c.182 1.422.365 2.844.08 4.31-77.611.063-154.758-.178-231.9.264-22.384.128-41.21 9.49-55.519 27.072-5.032 6.183-9.547 12.806-14.806 18.782-24.04 27.316-54.547 40.57-90.764 40.934-40.13.405-80.261.634-120.39 1.058-14.269.15-25.469 4.786-33.59 18.093-19.521 31.988-38.175 64.366-53.546 98.581a680 680 0 0 0-36.751 103.306c-8.876 33.22-15.457 66.907-19.588 101.117-3.552 29.416-5.066 58.897-5.629 88.462-.142 7.464.359 14.953.856 22.411 1.224 18.383 1.594 36.9 4.181 55.098 4.013 28.223 8.492 56.472 14.758 84.262 8.565 37.99 20.935 74.896 36.485 110.696 15.336 35.307 32.06 69.81 54.197 101.5 7.356 10.53 15.913 19.53 28.125 23.632 8.702 2.924 17.983 4.265 27.095 5.773 5.338.883 10.85.709 16.207 1.379-3.902 1.2-7.727 2.031-11.843 2.926.405 1.446.842 3.008.792 4.649-13.722.536-26.613-1.012-39.889-7.734 1.68 2.581 2.373 3.892 3.29 5.02 11.136 13.699 21.848 27.776 33.56 40.964 24.475 27.56 55.25 41.204 92.379 40.843 39.662-.384 79.33-.083 118.996-.081h6.598c-6.496-5.535-13.002-11.08-19.108-16.704 3.054-1.135 5.707-2.189 8.66-3.096 17.198 14.336 36.425 20.245 58.712 20.219 285.642-.333 571.285-.224 856.927-.239 77.993-.004 155.986-.049 234.353-.05 1.125.013 1.875 0 3.094.013 34.82.005 69.174-.016 103.901-.014 1.123.005 1.872-.012 3.09-.002 91.122.02 181.777-.158 272.43.12 23.664.073 41.783-10.348 57.245-26.934 10.092-10.825 19.584-22.238 30.055-32.677 17.879-17.823 40.014-26.531 65.074-27.416 15.266-.54 30.565-.044 45.848-.199 14.476-.146 28.95-.477 43.423-.834 9.803-.241 19.63-.33 29.397-1.103 10.442-.828 20.716-3.524 28.355-10.935 7.807-7.575 15.492-15.688 21.37-24.77 29.172-45.077 51.318-93.545 68.344-144.449 14.752-44.106 25.672-89.093 31.009-135.274 2.912-25.203 5.178-50.587 5.702-75.93.504-24.381-1.304-48.833-2.696-73.22-.794-13.898-2.197-27.823-4.389-41.566-2.95-18.508-6.643-36.912-10.516-55.255-10.908-51.666-27.7-101.471-51.02-148.766-14.105-28.606-31.134-55.76-46.509-83.754-7.218-13.141-18.701-17.768-32.66-18.025-24.802-.456-49.61-.653-74.413-1.01-20.302-.292-40.713.56-60.878-1.269-33.43-3.032-60.416-18.801-81.12-45.427-6.714-8.633-13.502-17.557-21.777-24.547-12.815-10.826-28.684-15.568-45.368-15.68-47.491-.322-94.987-.06-142.48-.132-28.148-.042-56.295-.395-84.442-.403-40.146-.013-80.292.163-120.386-.092-.195-1.682-.441-3.014-.687-4.347-1.085.748-2.326 1.355-3.188 2.304-.424.467-.147 1.57-.653 2.434-19.156.017-37.845-.014-56.543-.363-.441-.867-.873-1.417-1.305-1.966-.229.76-.457 1.522-1.152 2.332-26.822.018-53.178-.014-79.536-.415-1.29-1.668-2.58-4.032-3.865-4.029-2.365.007-5.447.605-5.585 4.442-3.484.018-6.516-.013-9.561-.388-.544-.982-1.074-1.62-1.603-2.257-.462.875-.923 1.75-1.826 2.668-2.814.01-5.186-.024-7.572-.46-.339-3.147-.664-5.892-.989-8.637 2.483-.11 4.965-.317 7.447-.316 213.196.056 426.392.127 639.587.203 15.823.006 31.659-.32 47.464.219 9.266.315 18.484 2.036 28.102 3.656.945 5.822 3.105 7.433 9.37 7.546l-2.955-6.143c3.125.91 6.25 1.82 9.622 3.302-.383 3.216-1.013 5.86-2.005 8.48-15.025-5.559-30.246-7.717-45.855-7.727-42.943-.03-85.887-.121-129.002-.383-.556-.088-.94.02-1.323.127.487.426.974.853 1.803 1.349 11.542 6.434 20.187 15.516 28.13 25.507 6.301 7.926 12.6 16.022 19.967 22.9 20.846 19.462 46.355 27.344 74.424 27.68 35.95.43 71.905.555 107.855.992 7.962.097 15.915.948 24.12 1.602.522.084.794.017 1.067-.05a7.5 7.5 0 0 1-.696-1.26 471 471 0 0 0-9.587-12.555c-18.632-23.6-39.382-44.695-67.455-57.367 2.776-2.112 5.485-3.896 8.193-5.68 15.035 6.507 28.194 15.818 39.809 27.257 21.702 21.373 40.104 45.463 56.897 70.773 57.823 87.15 93.36 182.846 109.193 286.045 10.508 68.487 11.557 137.11 1.763 205.713-14.351 100.535-47.143 194.441-102.363 280.11-10.726 16.64-24.19 29.765-44.012 34.569-6.582 1.595-13.466 2.573-20.23 2.68-34.159.538-68.325.936-102.487.913-29.194-.019-53.549 10.501-73.187 31.973-7.533 8.237-14.76 16.751-22.192 25.08-18.743 21-41.907 30.558-70.347 30.533-283.161-.255-566.323.002-849.484-.03-264.661-.028-529.323-.256-793.984-.331-39.72-.011-72.507-15.194-98.636-44.75a636 636 0 0 1-30.394-37.113c-60.89-80.36-100.554-170.449-122.58-268.582C6.784 584.854 3.488 507.226 12.301 429.153 24.59 320.288 58.962 218.931 117.855 126.21c16.741-26.358 35.379-51.279 56.591-74.213 28.066-30.344 62.297-47.209 104.16-47.239 97.495-.07 194.99-.173 292.94.18.742 1.203 1.031 1.962 1.85 4.11l.62-4.265c.983-.109 1.966-.314 2.95-.314 69.374.002 138.749.02 208.575.532.582 1.85.712 3.204.842 4.56l1.549.393 2.086-5.169c.982-.113 1.964-.324 2.946-.324 50.376-.002 100.752.013 151.582.472.742 1.205 1.031 1.965 1.85 4.12zM327.5 13.947c-17.158.015-34.322-.268-51.472.11-29.262.645-55.412 10.029-78.059 28.83-17.443 14.48-31.444 32.058-45.249 49.827-.21.27-.167.735-.143.618 7.728-.383 15.348-1.015 22.975-1.093 37.645-.387 75.303-.137 112.933-1.065 32.81-.81 61.134-12.662 82.307-38.563 11.341-13.874 21.44-28.821 37.37-38.665zm784.774-5.87-3.04 1.32 1.42 1.609c.767-.922 1.534-1.844 1.62-2.928M501.648 11.32l-.83-.832-.515 1.51c.38-.066.76-.131 1.345-.678m303.784-1.134 1.102.014c.002-.153.014-.438.004-.438-.365-.03-.733-.032-1.106.424m1008.096.092c-.254-.266-.505-.535-.773-.785-.008-.007-.208.196-.319.3.254.267.508.534 1.092.485"/><path fill="#060708" d="M1341.018 4.775c17.73-.09 35.462-.18 53.583.253-.622 1.89-1.643 3.249-2.642 4.624s-1.974 2.766-3.357 4.205c-1.466.015-2.534-.025-3.613-.426-1.37-4.735-4.477-4.636-8.208-3.937-2.332.436-4.839.041-7.258-.123-3.276-.221-5.452.779-5.979 4.504-3.819.014-7.181-.017-10.544-.466.594-5.045-2.642-4.357-5.454-4.432-2.974-.078-6.856 1.074-6.528-4.202"/><path fill="#060708" d="M1340.596 4.63c.094 5.421 3.976 4.269 6.95 4.347 2.812.075 6.048-.613 5.038 4.485-1.809.433-3.202.396-4.644.092-.676-.087-1.303.093-2.393.318-4.824.013-9.186-.02-13.547-.052.652-2.802 1.305-5.604 1.97-8.724 2.076-.415 4.14-.512 6.626-.465"/><path fill="#131413" d="M2146.04 16.598c-2.478 2.056-5.187 3.84-8.292 5.962-1.183-.041-1.97-.42-2.756-.8.63-2.645 1.26-5.289 1.945-8.295 2.994.711 5.933 1.785 9.103 3.133"/><path fill="#060708" d="M1389 13.803c.985-1.385 1.96-2.776 2.959-4.151s2.02-2.734 3.038-4.483c.763-.476 1.52-.568 2.639-.52.686 2.884 1.011 5.63.898 8.829-3.47.411-6.502.368-9.534.325"/><path fill="#131413" d="M2126.749 9.72c1.272 2.33 2.28 4.427 3.218 6.376-6.265-.113-8.425-1.724-8.99-7.4 1.837.008 3.673.4 5.772 1.024"/><path fill="#060708" d="M789.629 4.644c-.306 1.864-1.002 3.587-1.697 5.31l-1.549-.394c-.13-1.355-.26-2.71-.396-4.416 1.08-.448 2.167-.545 3.642-.5m-215.942 0c.195 1.057.062 1.974-.292 4.405-.818-2.15-1.107-2.908-1.403-3.968.45-.392.908-.484 1.695-.437m373-.004c.195 1.058.062 1.976-.291 4.412-.819-2.154-1.108-2.914-1.404-3.974.45-.393.908-.486 1.695-.438m128.001-.018c.176 1.022.045 1.903-.274 4.04-.77-1.805-1.064-2.495-1.342-3.544.446-.451.877-.544 1.616-.496"/><path fill="#353740" d="M1388.602 13.857c3.43-.011 6.462.032 9.946.023 2.824-.02 5.196.014 8.383.053a84 84 0 0 0 3.069-.115c3.032.031 6.064.062 9.996.099 3.6-.029 6.302-.063 9.004-.098l79.866.095c1.244-.032 1.689-.065 2.134-.098 18.69.031 37.378.062 56.933.1a191 191 0 0 0 4.078-.096c40.145-.095 80.291-.27 120.437-.258 28.147.008 56.294.36 84.442.403 47.493.072 94.989-.19 142.48.131 16.684.113 32.553 4.855 45.368 15.68 8.275 6.991 15.063 15.915 21.777 24.548 20.704 26.626 47.69 42.395 81.12 45.427 20.165 1.829 40.576.977 60.878 1.27 24.804.356 49.611.553 74.414 1.01 13.958.256 25.441 4.883 32.66 18.024 15.374 27.994 32.403 55.148 46.507 83.754 23.32 47.295 40.113 97.1 51.02 148.766 3.874 18.343 7.566 36.747 10.517 55.255 2.192 13.743 3.595 27.668 4.389 41.567 1.392 24.386 3.2 48.838 2.696 73.218-.524 25.344-2.79 50.728-5.702 75.931-5.337 46.181-16.257 91.168-31.009 135.274-17.026 50.904-39.172 99.372-68.344 144.45-5.878 9.081-13.563 17.194-21.37 24.769-7.639 7.411-17.913 10.107-28.355 10.935-9.767.774-19.594.862-29.397 1.103-14.473.357-28.947.688-43.423.834-15.283.155-30.582-.34-45.848.199-25.06.885-47.195 9.593-65.074 27.416-10.47 10.439-19.963 21.852-30.055 32.677-15.462 16.586-33.581 27.007-57.245 26.934-90.653-.278-181.308-.1-272.622-.358-1.53-.104-2.4.057-3.272.217-34.353.021-68.706.042-103.718-.203-1.532-.11-2.405.046-3.278.202-77.992.026-155.985.071-233.978.075-285.642.015-571.285-.094-856.927.239-22.287.026-41.514-5.883-58.878-20.508-7.61-8.536-14.615-16.765-21.934-24.705-10.734-11.645-21.92-22.705-36.05-30.48-18.447-10.15-38.497-12.133-58.88-12.414-21.159-.291-42.324-.072-63.485-.006-1.958.006-3.914.517-6.27.772-1.47-.015-2.538-.007-3.977-.021-1.113-.02-1.855-.016-2.597-.013-5.433-.301-10.945-.127-16.283-1.01-9.112-1.508-18.393-2.85-27.095-5.773-12.212-4.102-20.769-13.102-28.125-23.632-22.137-31.69-38.861-66.193-54.197-101.5-15.55-35.8-27.92-72.707-36.485-110.696-6.266-27.79-10.745-56.039-14.758-84.262-2.587-18.197-2.957-36.715-4.181-55.098-.497-7.458-.998-14.947-.856-22.41.563-29.566 2.077-59.047 5.63-88.463 4.13-34.21 10.711-67.896 19.587-101.117a680 680 0 0 1 36.751-103.306c15.371-34.215 34.025-66.593 53.546-98.58 8.121-13.308 19.321-17.943 33.59-18.094 40.129-.424 80.26-.653 120.39-1.058 36.217-.364 66.724-13.618 90.764-40.934 5.259-5.976 9.774-12.6 14.806-18.782 14.31-17.582 33.135-26.944 55.518-27.072 77.143-.442 154.29-.201 232.317-.214 2.272-.03 3.663-.068 5.053-.106 36.117.052 72.234.135 108.35.147 39.239.014 78.477-.037 118.581-.054 1.937-.036 3.01-.077 4.08-.118 38.686.039 77.371.078 116.896.122a86 86 0 0 0 3.093-.112c3.363.026 6.726.053 10.97.09 2.601-.018 4.32-.046 6.04-.074 1.71.027 3.419.055 5.998.09 3.243-.034 5.617-.076 7.992-.118l24.907.123a87 87 0 0 0 3.093-.111c42.023.031 84.045.062 126.96.103 2.608-.028 4.324-.064 6.04-.1 1.068.031 2.135.063 4.037.104a701 701 0 0 0 6.965-.123c.75.036 1.5.07 3.09.119 6.862-.025 12.885-.063 18.908-.101 19.69.032 39.379.064 59.907.1a99 99 0 0 0 3.093-.095c2.372.036 4.744.072 7.558.055 4.803-.021 9.165.01 14.318.046 1.233-.032 1.673-.066 2.114-.1 1.392.038 2.785.075 4.594.06 3.779-.022 7.141.009 11.426.049 7.612-.04 14.3-.088 20.99-.136 1.068.04 2.136.079 3.602.064m188.651 912.85c-6.99-10.257-16.37-15.577-29.099-14.859-7.796.44-15.64-.06-23.454.165-10.906.314-19.49 5.08-25.277 14.395-11.033 17.76-.609 42.662 19.81 46.21 8.594 1.492 17.541 1.077 26.334 1.271 12.92.285 23.729-4.093 31.867-14.421l9.413 1.303c3.35.463 5.149-2.007 4.388-5.54-1.84-8.544.77-16.228 5.469-23.165.977-1.444 4.182-2.595 5.848-2.113 3.956 1.146 6.612-.099 9.4-2.566.863-.764 2.594-.898 3.871-.767 2.392.245 4.743.895 7.212 2.166 1.947 11.33 6.697 21.36 13.295 30.358l-2.857 4.104c-6.216-2.506-11.623-1.265-16.662 3.04-1.459 1.247-4.022 1.28-6.114 1.69-5.466 1.069-10.951 2.038-18.038 3.344l8.402 4.76.043 1.433c-2.543.823-5.173 1.448-7.602 2.525-2.413 1.07-4.645 3.72-6.919 3.677-4.037-.077-5.651 2.289-7.092 4.956-.847 1.568-.716 3.663-1.025 5.521 1.755-.35 3.51-.704 5.266-1.049 2.415-.473 4.97-1.676 7.22-1.255 4.762.891 9.345 2.71 14.056 3.942.706.184 1.766-.653 2.552-1.181a59 59 0 0 0 4.345-3.21c2.265-1.843 3.679-1.153 5.154 1.17 4.081 6.423 11.577 6.457 16.552.51 3.9-4.662 7.782-9.527 12.5-13.252 2.892-2.283 5.173-4.298 6.547-7.63 22.86 13.398 46.82 15.294 71.266 5.526 23.595-9.428 37.647-27.198 41.876-52.338 2.022-12.021-3.734-18.423-15.961-18.424-37.284-.005-74.569.025-111.853.02-6.83-.001-12.48 1.877-15.748 8.888-1.259-1.25-3.79-2.843-3.562-3.69 1.15-4.257.307-7.68-2.67-10.674-6.707.976-7.433 5.668-6.544 11.194-7.402-1.535-7.612-2.043-5.385-8.151.528-1.448.477-4.349-.323-4.806-2.34-1.339-5.281-2.56-7.81-2.274-1.441.164-2.721 3.27-3.715 5.232-.512 1.01.17 3.244-.382 3.518-5.453 2.699-5.56 8.04-7.28 12.83-1.11 3.094-1.493 7.951-7.314 7.618M508.105 846.87c-.016 1.992-.069 3.984-.04 5.976.082 5.67 1.423 7.06 7.059 7.07 5.308.012 10.617-.115 16.85-.072 2.999.03 5.998.087 8.997.087 397.997.004 795.994.008 1193.99-.005 35.331-.002 70.662-.115 106.928-.032 3.807.018 7.614.1 11.42.038 5.243-.085 6.402-1.39 6.551-7.902.03-2.33.087-4.662.087-6.994-.002-219.187 0-438.375-.022-657.562-.003-27.479-.127-54.957-.064-83.364.025-2.833.07-5.665.073-8.497.01-8.454-.11-8.572-8.762-8.572-443.091.002-886.182 0-1329.273.036-14.536 0-14.34-2.612-13.757 15.887.035 30.003.07 60.006-.024 90.689.042.457.085.914.026 2.3-.023 1.664-.066 3.33-.066 4.994-.005 189.025-.015 378.05-.003 567.075.002 25.978.11 51.956.03 78.848M278.202 269.115c-11.44.667-23.009.47-34.295 2.16-35.416 5.306-67.07 19.705-93.8 43.453-36.352 32.296-58.253 72.576-63.213 121.454-2.668 26.29-1.107 52.273 7.552 77.328 17.842 51.625 51.348 89.574 101.042 112.689 35.643 16.579 73.15 21.07 111.504 13.367 49.859-10.014 89.577-36.401 118.44-78.444 27.518-40.085 37.02-84.6 30.3-132.446-5.383-38.324-21.945-71.825-48.068-100.168-25.7-27.884-57.382-46.307-94.551-54.503-11.14-2.457-22.639-3.279-34.911-4.89m1878.283 370.842c10.4-11.874 17.045-25.381 17.472-41.407.09-3.38 2.147-4.293 4.381-5.867 10.305-7.259 21.01-14.105 30.488-22.346 13.685-11.898 23.964-26.68 32.105-42.934.77-1.54 3.028-3.173 4.702-3.294 23.954-1.738 42.365-12.485 54.96-33.048 25.843-42.19-3.66-98.37-53.077-100.932-2.887-.15-4.851-.594-6.353-3.519-14.032-27.33-33.847-49.263-61.027-64.045-4.167-2.266-5.745-5.22-6.158-9.755-1.703-18.717-10.063-34.237-24.857-45.552-21.7-16.596-45.817-19.39-70.466-7.737-22.769 10.765-35.592 29.415-37.51 54.86-.272 3.604-1.293 5.713-4.534 7.408-27.474 14.363-47.425 36.155-61.577 63.43-1.894 3.653-3.929 5.054-7.972 4.94-3.427-.095-6.925.713-10.32 1.449-32.247 6.984-56.027 40.676-50.995 74.255 4.831 32.24 30.912 56.705 63.226 58.253 1.803.086 4.295 1.75 5.148 3.374 14.712 27.977 35.424 50.124 63.142 65.496 2.704 1.5 3.534 3.243 3.831 6.228 2.067 20.798 11.232 37.833 28.374 49.958 27.14 19.2 62.211 15.5 87.017-9.215M241.703 838.86c14.446 6.798 29.669 8.704 45.219 5.85 39.463-7.246 68.76-41.844 62.741-86.931-5.81-43.526-44.477-72.008-88.268-65.467-41.88 6.256-71.716 46.953-62.827 91.584 5.01 25.152 19.63 43.162 43.135 54.964m1624.876 143.25c10.6-1.626 20.059-6.016 28.604-12.308 16.728-12.317 26.989-28.248 26.792-49.711-.062-6.71-3.481-10.778-10.098-12.28-1.925-.437-3.931-.718-5.9-.72-37.311-.049-74.622-.06-111.933-.043-10.484.005-15.932 5.576-14.847 16.023.593 5.715 1.88 11.544 3.963 16.889 13.221 33.917 50.735 48.933 83.419 42.15M587.864 912.857c-3.236-4.98-8.336-5.72-13.603-5.757-14.666-.103-29.333-.094-44-.094-23 0-46-.017-68.999.07-9.463.036-16.01 6.533-15.106 15.369 1.904 18.578 9.534 34.469 24.885 45.434 27.48 19.628 56.585 21.488 86.304 5.267 17.266-9.425 28.444-24.001 32.002-43.527.933-5.119-.678-10.701-1.483-16.762M1989.327 239.34c3.027-12.981-3.474-21.372-16.612-21.4-9.83-.021-19.66-.05-29.49.022-9.208.068-15.291 6.231-15.323 15.368-.033 9.62 5.81 15.654 15.36 15.712 10.329.063 20.66-.108 30.988.063 6.957.114 11.764-2.877 15.077-9.765M402.512 217.934c-2.828.003-5.656-.028-8.483.016-9.818.156-16.14 6.395-16.053 15.808.087 9.34 6.144 15.205 15.943 15.275 10.147.072 20.295.057 30.442.016 9.419-.038 15.648-5.98 15.713-14.887.07-9.644-6.07-16.074-15.606-16.197-6.986-.09-13.973-.026-21.956-.03m980.463 726.429c.431 14.585 10.463 26.925 25.01 28.485 10.97 1.177 22.193.68 33.257.084 14.92-.803 28.057-15.89 27.674-30.885-.407-15.927-14.074-29.883-29.57-30.08-8.322-.106-16.683.47-24.962-.144-16.541-1.227-33.366 13.957-31.41 32.54m-707.983 29.518c9.291-.286 18.58-.68 27.874-.833 17.072-.279 30.136-13.506 30.121-30.663-.014-16.966-13.319-30.301-30.4-30.419-8.652-.06-17.305-.1-25.956-.037-19.081.137-33.424 18.17-29.113 36.873 3.257 14.13 12.453 22.267 27.474 25.079m151.612-56.889c-.508.43-.996.887-1.528 1.284-10.586 7.883-14.84 21.076-10.868 33.74 3.838 12.24 15.615 20.921 28.573 21.002 8.818.055 17.638.123 26.455.027 16.476-.179 29.727-13.9 29.713-30.637-.015-16.915-13.125-30.404-29.71-30.493-8.154-.043-16.361-.529-24.442.25-5.953.573-11.74 2.872-18.193 4.827m132.896 17.932c-4.052 3.54-4.635 8.144-2.88 12.722 1.872 4.876 6.163 6.542 11.289 6.461 7.307-.115 14.619.04 21.927-.055 7.121-.092 11.244-4.278 11.196-11.141-.044-6.312-4.532-10.783-11.094-10.86-7.309-.085-14.628-.236-21.924.077-2.673.115-5.292 1.478-8.514 2.796m1294.893-123c4.023-.416 7.368-2.389 7.634-6.43.195-2.951-.802-6.61-2.604-8.903-2.224-2.83-6.486-3.698-9.386-1.22-2.336 1.996-4.577 5.486-4.686 8.394-.18 4.783 3.328 7.617 9.042 8.16m34.74-101.124c.83.063 1.663.216 2.487.174 5.252-.267 8.91-4.503 8.378-9.652-.487-4.713-4.838-8.5-9.211-8.016-4.971.55-8.932 5.396-7.557 10.383.704 2.556 3.38 4.569 5.904 7.11M121.55 798.2c-2.757-3.536-6.227-5.007-10.464-3.04-3.388 1.574-5.322 4.181-5.212 8.256.117 4.33 2.274 7.277 6.186 7.84 2.575.37 5.92-.538 8.048-2.078 3.468-2.509 3.749-6.41 1.442-10.978M76.497 693.216c-1.42.424-2.977.604-4.233 1.315-4.015 2.277-5.35 6.067-3.988 10.19 1.267 3.839 4.399 6.41 8.699 6.1 4.24-.308 6.923-3.067 7.898-7.14 1.108-4.635-1.78-8.398-8.376-10.465m49.738 1.917c7.24-1.177 13.858.098 19.853 4.575 1.058.79 2.904.527 4.386.75-9.19-12.175-31.003-12.127-38.81-.18 2.149-.287 3.586-.194 4.775-.692 3.05-1.279 5.989-2.82 9.796-4.453m40.678 101.799 1.13 7.149 1.468-.096c.386-.654 1.001-1.268 1.125-1.969 2.114-11.955-10.171-26.931-22.36-27.21-.968-.023-1.954.728-2.932 1.12.874.744 1.657 1.977 2.635 2.16 10.255 1.905 16.733 7.64 18.934 18.846m605.897 135.11c-5.693 1.805-8.275 5.63-7.763 11.5.415 4.765 3.265 7.962 7.565 8.488 5.692.696 9.993-2.736 10.663-8.508.784-6.768-2.693-10.92-10.465-11.48M125.548 704.429c5.479-2.3 10.38-.772 15.2 2.074.906.535 2.355.151 3.553.192-.239-.991-.164-2.269-.766-2.93-6.188-6.795-19.935-5.891-24.747 2.911 2.01-.63 4.02-1.26 6.76-2.247m631.491 239.806-1.392 2.583c-2.73-4.907-2.75-10.782-7.078-14.665 1.123 6.361 3.057 12.403 5.277 18.339.16.425 3.366.454 3.541.018 2.36-5.878 4.434-11.871 6.579-17.836l-2.022-.857c-1.556 3.9-3.112 7.798-4.905 12.418M150.49 782.956l-5.146.558c1.294.932 2.459 2.258 3.903 2.729 6.824 2.225 9.542 7.165 10.06 13.937.09 1.156 1.404 2.219 2.153 3.325.6-1.183 1.756-2.388 1.71-3.546-.315-8.13-4.469-13.679-12.68-17.003m-12.106 19.84c-.116 3.464 1.407 6.213 4.913 5.963 1.845-.131 4.675-2.416 4.957-4.084.291-1.72-1.513-4.635-3.221-5.663-2.907-1.75-5.31-.104-6.65 3.784m649.49 149.086h9.748l.045-2.09-8.801-.854v-17.626c-3.031 3.143-3.61 14.65-.991 20.57M132.29 707.916l-8.664 2.026 7.84 6.478 6.742-6.252c-2.16-.92-3.622-1.544-5.918-2.252m18.287 88.245 3.6 8.357c2.375-4.795 1.033-7.938-1.03-10.326-1.781-2.061-4.585-3.238-6.937-4.805l-1.415 2.027c1.757 1.39 3.513 2.779 5.782 4.747"/><path fill="#f3f4f7" d="M328 13.947h80.163c-15.93 9.843-26.03 24.79-37.371 38.664-21.173 25.901-49.498 37.753-82.307 38.563-37.63.928-75.288.678-112.933 1.065-7.627.078-15.247.71-22.975 1.093-.024.117-.066-.349.143-.618 13.805-17.769 27.806-35.347 45.25-49.828 22.646-18.8 48.796-28.184 78.058-28.829 17.15-.378 34.314-.095 51.972-.11m1806.629 7.787c1.15.405 1.936.785 3.051 1.154 28.47 12.334 49.22 33.43 67.852 57.029 3.198 4.05 6.339 8.148 9.403 12.754-.215.673-.325.817-.435.96-7.957-.503-15.91-1.354-23.872-1.451-35.95-.437-71.904-.562-107.855-.992-28.07-.336-53.578-8.218-74.424-27.68-7.367-6.878-13.666-14.974-19.967-22.9-7.943-9.99-16.588-19.073-28.223-25.813-.361-.575-.288-.775-.215-.975 42.943.067 85.887.158 128.83.188 15.609.01 30.83 2.168 45.855 7.726"/><path fill="#e9eaed" d="m383.327 986.267 19.508 16.623h-6.598c-39.666-.002-79.334-.303-118.996.081-37.129.36-67.904-13.283-92.38-40.843-11.711-13.188-22.423-27.265-33.56-40.964-.916-1.128-1.61-2.439-3.289-5.02 13.276 6.722 26.167 8.27 40.205 7.827 1.383.834 2.608 1.821 2.446 2.45-1.97 7.636.562 14.284 4.9 20.17 3.428 4.654 7.446 8.98 11.725 12.879 19.488 17.754 42.722 25.772 68.897 25.815 24.982.041 49.965-.028 74.945.192 8.653.076 16.267-1.507 22.04-11.1z"/><path fill="#080909" d="M383.727 986.186c-3.624-3.693-6.848-7.468-10.558-11.81-5.772 9.594-13.386 11.177-22.039 11.1-24.98-.219-49.963-.15-74.945-.19-26.175-.044-49.409-8.062-68.897-25.816-4.279-3.898-8.297-8.225-11.726-12.878-4.337-5.887-6.868-12.535-4.9-20.17.163-.63-1.062-1.617-1.958-2.53-.753-1.655-1.19-3.217-1.595-4.663 4.116-.895 7.94-1.726 11.843-2.926.818-.372 1.56-.375 2.741-.012 2.117 2.391 3.443 2.38 4.308-.3 1.957-.278 3.913-.789 5.87-.795 21.162-.066 42.327-.285 63.485.006 20.384.28 40.434 2.264 58.88 12.414 14.131 7.775 25.317 18.835 36.051 30.48 7.319 7.94 14.323 16.17 21.634 24.558-2.487 1.343-5.14 2.397-8.194 3.532m-22.214-23.12c-21.007-26.116-48.05-38.852-81.773-38.137-24.291.515-48.607-.131-72.912-.297-7.079-.048-10.037 3.602-7.358 10.308 1.626 4.073 4.15 8.054 7.138 11.27 16.395 17.643 36.528 28.226 60.724 29.83 12.602.835 25.286.498 37.933.569 16.314.091 32.63.09 48.943.06 4.131-.007 8.604-.59 9.826-5.106.619-2.288-1.3-5.262-2.52-8.498"/><path fill="#060708" d="M1260.986 13.434c-6.009.418-12.032.456-18.52.438-.525-5.734 4.539-4.23 6.932-4.215 3.899.023 9.075-2.087 11.588 3.777m168.012.015c-2.7.405-5.401.44-8.55.42-.762-3.844 2.32-4.442 4.685-4.449 1.284-.003 2.575 2.361 3.865 4.029m-362.014-.013c-2.359.406-4.733.448-7.551.436-1.219-1.39-1.994-2.724-3.457-5.244 4.29 1.746 8.753-.422 11.008 4.808m172.016-.04c-2.042.444-4.086.488-6.565.477-.57-2.739-.14-4.815 3.318-4.907 3.108-.082 3.39 1.704 3.248 4.43m-185.945.09c-1.766.37-3.485.398-5.63.365-.57-3.551 1.678-4.202 4.36-3.686.608.117.887 1.94 1.27 3.32m174.936-.019c-1.708.385-3.424.421-5.566.4.54-1.541 1.505-3.026 2.47-4.51 1.03 1.254 2.059 2.508 3.096 4.11m-543.002.004c-1.38.395-2.77.433-4.577.42-.597-1.473-.78-2.895-.962-4.318q.608-.514 1.213-1.03c1.44 1.524 2.878 3.046 4.327 4.927m231.072-.015c-1.123.39-2.195.43-3.665.418-.36-.869-.636-1.97-.213-2.438.86-.952 2.098-1.562 3.18-2.313.25 1.329.5 2.657.698 4.333m655.999.016c-1.122.385-2.193.42-3.663.399-.359-.872-.636-1.975-.212-2.442.862-.95 2.103-1.556 3.188-2.304.246 1.333.492 2.665.687 4.347M1324 13.445c-.751.407-1.502.44-2.627.42-.08-1.536.214-3.017.507-4.5l1.521-.016c.2 1.24.4 2.48.599 4.096m-211.385-5.286c-.427 1.003-1.194 1.925-1.961 2.847l-1.42-1.608c1.013-.44 2.026-.88 3.381-1.24m-76.617 5.285c-.749.408-1.5.447-2.624.434.166-1.241.706-2.431 1.246-3.62.458.938.917 1.878 1.378 3.186m58.989.025c-.738.383-1.489.421-2.613.408.089-.922.552-1.791 1.015-2.66.528.636 1.056 1.272 1.598 2.252m315 .006c-.738.384-1.489.424-2.613.416.087-.923.548-1.798 1.01-2.673.53.638 1.06 1.275 1.603 2.257m101.003.024c-.435.351-.88.384-1.658.366-.103-.81.125-1.571.354-2.332.432.55.864 1.099 1.305 1.966M501.546 11.56c-.482.307-.863.372-1.243.438l.515-1.51c.277.278.554.555.728 1.073"/><path fill="#131413" d="M1959.772 13.625c.099.395.026.595.045 1.101-.394-.12-.881-.548-1.368-.974.383-.108.767-.215 1.323-.127"/><path fill="#060708" d="M805.435 9.955c.37-.225.738-.222 1.103-.193.01 0-.002.285-.004.438-.367-.005-.734-.01-1.099-.245m1007.928.481c-.419-.11-.673-.376-.927-.642.11-.105.311-.308.319-.301.268.25.52.519.608.943"/><path fill="#3b3c45" d="M1542.379 1003.02c.498-.181 1.371-.337 2.435-.254-.56.254-1.31.267-2.435.255"/><path fill="#393b44" d="M1649.374 1003.019c.497-.183 1.368-.344 2.43-.267-.558.255-1.307.272-2.43.267"/><path fill="#f3f4f7" d="M2215.015 93.002c.39.11.595.42.8.73-.273.067-.545.134-1.067.05-.138-.294-.028-.438.267-.78"/><path fill="#060708" d="M1384.989 13.43c-6.678.411-13.367.46-20.523.454-.395-3.734 1.78-4.734 5.057-4.513 2.419.164 4.926.56 7.258.123 3.731-.699 6.837-.798 8.208 3.937m-37.049.123c-.39.3-.831.334-1.6.32.297-.227.924-.407 1.6-.32"/><path fill="#040506" d="M278.671 269.135c11.803 1.591 23.303 2.413 34.442 4.87 37.169 8.196 68.85 26.62 94.55 54.503 26.124 28.343 42.686 61.844 48.069 100.168 6.72 47.845-2.782 92.361-30.3 132.446-28.863 42.043-68.581 68.43-118.44 78.444-38.354 7.704-75.86 3.212-111.504-13.367-49.694-23.115-83.2-61.064-101.042-112.69-8.66-25.054-10.22-51.036-7.552-77.327 4.96-48.878 26.861-89.158 63.213-121.454 26.73-23.748 58.384-38.147 93.8-43.452 11.286-1.69 22.855-1.494 34.764-2.14m46.253 15.575-.279-.152c.122.144.244.288.646 1.055 4.051 4.362 5.783 9.47 5.748 15.464-.118 20.33-.184 40.665.095 60.994.107 7.74-2.688 13.874-7.961 19.17-10.465 10.512-20.899 21.054-31.42 31.509-12.582 12.504-27.998 12.473-40.532-.164-10.437-10.521-20.57-21.348-31.11-31.762-5.597-5.53-8.104-11.937-8.064-19.664.084-16.498-.032-32.998.058-49.496.052-9.653-1.17-19.687 8.169-27.685-32.517 8.744-67.703 31.793-91.986 64.711-11.574 15.69-21.016 32.64-26.04 50.77 6.069-.859 11.663-2.26 17.276-2.337 19.995-.274 39.996-.056 59.995-.118 5.992-.018 11.008 1.94 15.241 6.21 11.264 11.361 22.653 22.599 33.892 33.985 11.412 11.56 11.353 27.166-.085 38.687-10.92 10.998-21.943 21.894-32.857 32.899-5.444 5.49-11.84 8.308-19.66 8.137-16.972-.372-33.949-.794-50.922-.738-8.435.028-16.893 1.182-23.805-5.681 11.168 36.29 32.513 65.072 61.88 88.114 16.28 12.774 34.173 22.566 53.367 28.278-1.55-5.497-4.172-10.708-4.3-15.98-.495-20.32-.554-40.67.07-60.984.155-5.095 2.216-11.197 5.54-14.936 11.162-12.558 23.047-24.508 35.118-36.214 11.264-10.923 26.863-10.384 37.983.679 11.105 11.048 22.083 22.226 33.247 33.215 4.678 4.606 6.914 9.953 6.873 16.509-.114 18.331-.04 36.664-.088 54.996-.02 7.72 1.308 15.743-4.802 22.468 33.868-10.094 60.919-29.99 83.611-56.15 14.742-16.993 32.711-51.972 31.66-58.338-5.075 1.548-10.272 4.375-15.545 4.522-19.65.547-39.325.321-58.99.152-6.22-.053-12.335-1.277-17.022-5.92-12.29-12.17-24.807-24.134-36.652-36.728-10.188-10.831-8.844-27.315 2.192-37.483 10.027-9.239 19.22-19.39 28.698-29.218 6.763-7.013 14.296-11.122 24.67-10.641 15.632.724 31.324.028 46.987.23 8.747.112 18.019-2.242 25.666 5.311.198-1.365.457-1.911.306-2.298-1.868-4.803-3.747-9.603-5.717-14.365-9.22-22.288-22.443-41.948-39.777-58.655-12.728-12.267-26.53-23.388-42.608-31.006-9.238-4.377-19.112-7.411-28.766-11.352M221.072 339.5c-.001 7.491-.494 15.028.19 22.456.376 4.067 1.726 8.897 4.387 11.754 10.883 11.687 22.256 22.94 33.814 33.97 7.838 7.48 17.215 7.055 24.897-.524 10.902-10.755 21.94-21.393 32.369-32.595 2.786-2.993 4.936-7.821 5.034-11.863.505-20.797.19-41.612.298-62.42.021-4.187-1.362-7.316-5.448-8.452-8.125-2.26-16.237-4.806-24.53-6.183-21.813-3.62-43.317-1.969-64.34 5.193-4.79 1.632-6.843 4.671-6.778 9.71.161 12.65.086 25.302.107 38.954m101.503 273.268c.117-1.99.36-3.98.332-5.967-.27-19.142-.39-38.29-1.07-57.417-.122-3.438-1.788-7.568-4.142-10.052-10.995-11.601-22.44-22.778-33.805-34.025-7.221-7.147-17.185-7.241-24.525-.058-11.197 10.955-22.212 22.097-33.276 33.187-3.443 3.451-5.115 7.541-5.082 12.555.124 18.498.05 36.998.01 55.497-.028 12.476.707 13.491 12.788 16.896.798.225 1.61.398 2.42.58 17.832 3.989 35.867 5.103 53.977 2.86 8.371-1.037 16.642-3.07 24.863-5.046 4.012-.965 7.478-3.123 7.51-9.01m95.904-206.777c-17.478-.017-34.957.087-52.432-.122-5.239-.063-9.29 1.672-12.85 5.372-10.726 11.146-21.576 22.173-32.331 33.291-6.868 7.1-7.711 15.376-1.002 22.682 11.806 12.857 24.151 25.234 36.639 37.435 2.103 2.055 6.044 3.072 9.156 3.114 19.638.267 39.283.29 58.921.036 8.02-.104 9.43-1.335 11.591-8.992 7.263-25.74 7.62-51.75 1.97-77.793-3.272-15.074-3.568-15.01-19.662-15.023m-288.976-.03c-2.498.009-4.996.021-7.494.025-12.257.014-13.05.684-16.17 12.768-4.706 18.224-5.518 36.766-3.585 55.337.939 9.012 3.491 17.877 5.62 26.734.864 3.594 3.225 6.118 7.387 6.263 6.306.22 12.607.722 18.913.778 14.155.124 28.313.021 42.469.067 4.74.016 8.686-1.514 12.07-4.949 10.87-11.034 21.897-21.911 32.785-32.927 8.72-8.822 8.61-18.288-.064-27.158-8.842-9.042-17.588-18.177-26.436-27.213-6.163-6.294-12.562-10.798-22.55-9.999-13.9 1.113-27.956.276-42.945.274m-28.094-3.497s.126-.092 0 0m341.107.894-.1.19s.199-.031.1-.19M100.578 508.533s-.096.065 0 0m119.026 118.976s-.135.073 0 0m104.924-.138-.101.169s.21-.023.1-.17"/><path fill="#040507" d="M2156.234 640.211c-24.555 24.46-59.626 28.16-86.766 8.961-17.142-12.125-26.307-29.16-28.374-49.958-.297-2.985-1.127-4.729-3.83-6.228-27.72-15.372-48.43-37.52-63.143-65.496-.853-1.623-3.345-3.288-5.148-3.374-32.314-1.548-58.395-26.014-63.226-58.253-5.032-33.579 18.748-67.271 50.995-74.255 3.395-.736 6.893-1.544 10.32-1.448 4.043.113 6.078-1.288 7.972-4.94 14.152-27.276 34.103-49.068 61.577-63.431 3.241-1.695 4.262-3.804 4.534-7.408 1.918-25.445 14.741-44.095 37.51-54.86 24.649-11.653 48.767-8.86 70.466 7.737 14.794 11.315 23.154 26.835 24.857 45.552.413 4.535 1.991 7.489 6.158 9.755 27.18 14.782 46.995 36.716 61.027 64.045 1.502 2.925 3.466 3.369 6.353 3.519 49.417 2.562 78.92 58.742 53.078 100.932-12.596 20.563-31.007 31.31-54.96 33.048-1.675.121-3.932 1.755-4.703 3.294-8.141 16.254-18.42 31.036-32.105 42.934-9.478 8.24-20.183 15.087-30.488 22.346-2.234 1.574-4.292 2.487-4.381 5.867-.427 16.026-7.072 29.533-17.723 41.661m55.467-124.354c-25.771-15.083-38.149-37.854-34.328-67.192 4.295-32.988 24.994-51.964 57.32-58.47-3.776-17.89-41.252-56.95-60.003-62.646-6.451 35.687-32.922 57.489-60.923 58.874-40.994 2.027-64.306-20.312-73.262-59.172-19.375 6.928-55.843 45.424-59.872 63.112 33.621 5.962 54.679 29.992 56.962 58.329 3.29 40.828-17.366 65.438-57.01 75.75 13.862 26.973 33.126 48.006 59.985 62.374 7.08-33.43 25.86-56.079 59.654-59.225 41.29-3.844 64.815 19.436 74.548 58.195 19.65-4.73 58.468-48.42 58.642-61.437a3136 3136 0 0 1-21.713-8.492m-50.19 56.293c-1.017-2.098-1.992-4.218-3.057-6.292-11.323-22.066-38.07-34.722-62.184-29.439-30.452 6.672-50.524 34.84-46.048 65.745 3.336 23.029 16.45 39.052 38.3 47.016 22.697 8.273 43.429 3.292 60.056-13.694 17.252-17.625 21.799-39.002 12.932-63.336m-64.643-310.075c-15.255 2.714-26.945 11.1-36.024 23.241-18.709 25.02-13.713 60.787 11.243 80.244 12.982 10.122 27.75 14.55 43.993 11.835 25.88-4.328 41.453-20.202 48.295-45.155 5.408-19.724-3.276-44.998-19.462-57.352-14.026-10.705-29.58-15.427-48.045-12.813m-104.765 140.124c-7.19-1.069-14.365-2.94-21.571-3.068-32.78-.58-61.529 28.952-56.132 66.363 4.096 28.396 27.66 50.129 58.26 49.75 29.136-.361 56.944-23.23 57.061-57.304.09-26.136-13.045-44.649-37.618-55.741m271.101 109.626c26.521-9.664 42.338-38.172 37.231-65.479-4.837-25.866-28.12-48.435-58.586-47.554-34.458.997-61.274 31.753-55.994 65.735 5.827 37.505 40.902 59.263 77.35 47.298"/><path fill="#090a0d" d="M508.28 102.043c-.722-17.577-.917-14.964 13.619-14.965 443.09-.037 886.182-.034 1329.273-.036 8.651 0 8.771.118 8.762 8.572-.003 2.832-.048 5.664-.574 8.949-2.29.42-4.08.386-5.963-.023-.308-3.628-.523-6.878-.74-10.17H514.858c0 4.418 0 8.532-.374 12.632-1.414-1.005-2.417-2.039-3.505-2.974-.845-.725-1.796-1.328-2.7-1.985"/><path fill="#010204" d="M1840.953 859.75c-35.33.062-70.66.175-105.991.177-397.997.013-795.994.009-1193.99.005-3 0-6-.057-9.464-.498-.137-2.333.19-4.256.98-6.245a541 541 0 0 1 11.96-.146c397.19-.009 794.382-.019 1191.573-.008 34.652.001 69.303.14 103.961.59.329 2.292.65 4.209.971 6.125"/><path fill="#020305" d="M1853.49 104.916c1.79.033 3.58.066 5.804.112.504 27.49.628 54.968.631 82.447.022 219.187.02 438.375.022 657.562 0 2.332-.056 4.663-.498 7.459-2.355.14-4.299-.183-6.31-.97-.087-2.13-.124-3.797-.124-5.463-.003-197.916-.035-395.832.017-593.749.013-49.132.298-98.265.458-147.398m-1345.279-2.412c.973.196 1.924.799 2.769 1.524 1.088.935 2.091 1.97 3.562 3.439.444 1.978.468 3.477.468 4.976.009 207.372.024 414.744.015 622.116-.002 36.808-.107 73.616-.547 110.43-2.333.326-4.284.647-6.235.968-.058-25.978-.166-51.956-.168-77.934-.012-189.025-.002-378.05.003-567.075 0-1.665.043-3.33.375-5.518.137-1.168-.034-1.812-.205-2.456-.035-30.003-.07-60.006-.037-90.47"/><path fill="#040507" d="M241.367 838.69c-23.17-11.631-37.79-29.64-42.799-54.793-8.89-44.63 20.947-85.328 62.827-91.584 43.79-6.541 82.459 21.941 88.268 65.467 6.019 45.087-23.278 79.685-62.741 86.93-15.55 2.855-30.773.949-45.555-6.02m61.606-133.257c-8.32-2.134-16.57-5.732-24.974-6.136-29.786-1.433-52.069 11.68-65.996 37.958-13.318 25.129-8.687 60.181 14.463 82.044 23.456 22.151 60.475 25.654 86.69 6.919 43.756-31.272 38.606-96.482-10.183-120.785"/><path fill="#050609" d="M1866.156 982.19c-32.26 6.704-69.775-8.312-82.996-42.23-2.084-5.344-3.37-11.173-3.963-16.888-1.085-10.447 4.363-16.018 14.847-16.023 37.31-.017 74.622-.006 111.932.043 1.97.002 3.976.283 5.9.72 6.618 1.502 10.037 5.57 10.099 12.28.197 21.463-10.064 37.394-26.792 49.711-8.545 6.292-18.004 10.682-29.027 12.387M1799.548 914c-1.832.006-3.665 0-5.498.02-6.248.063-8.832 2.795-7.869 9.059 3.122 20.305 12.92 36.28 31.563 45.727 24.254 12.29 48.58 10.775 71.34-3.199 15.562-9.555 24.937-24.28 25.917-43.21.357-6.883-1.475-8.448-8.501-8.447-35.322.007-70.643.03-106.952.05m-1211.503-.798c.624 5.716 2.235 11.298 1.302 16.417-3.558 19.526-14.736 34.102-32.002 43.527-29.72 16.221-58.824 14.361-86.304-5.267-15.351-10.965-22.981-26.856-24.885-45.434-.905-8.836 5.643-15.333 15.106-15.37 23-.086 46-.068 69-.069 14.666 0 29.333-.009 44 .094 5.266.037 10.366.777 13.783 6.102m-70.54 63.687c16.32-.567 31.63-4.27 44.527-14.919 12.647-10.443 20.208-23.673 20.935-40.31.25-5.71-1.731-7.678-7.255-7.683-38.306-.031-76.61-.03-114.916.015-5.037.006-7.987 3.107-7.567 7.762 1.203 13.367 6.265 24.882 15.628 34.728 13.069 13.742 29.257 19.618 48.648 20.407m1119.548-17.908c-7.32-8.835-12.07-18.864-14.052-31.05-.042-4.547-.05-8.239-.057-11.93 2.563-7.1 8.212-8.98 15.042-8.978 37.284.005 74.569-.025 111.853-.02 12.227.001 17.983 6.403 15.961 18.424-4.23 25.14-18.281 42.91-41.876 52.338-24.445 9.768-48.406 7.872-71.793-5.915a2847 2847 0 0 1-15.078-12.869m2.084-44.98c-8.93-.002-11.286 2.319-9.163 11.153 1.798 7.486 3.95 15.255 7.806 21.804 8.526 14.483 21.31 23.906 38.727 27.7 4.15.489 8.3.978 13.11 1.944 8.12-.895 16.242-1.79 25.108-2.732 3.086-1.15 6.555-1.744 9.185-3.556 6.948-4.786 13.532-10.1 20.817-15.557 8.834-8.722 12.857-19.65 14.08-31.69.633-6.233-2.155-8.998-8.32-9.007-20.826-.03-41.652 0-63.414-.061-15.693.021-31.386.042-47.936.003"/><path fill="#040506" d="M1989.169 239.706c-3.155 6.522-7.962 9.513-14.92 9.399-10.326-.17-20.658 0-30.988-.063-9.55-.058-15.392-6.092-15.359-15.712.032-9.137 6.115-15.3 15.324-15.368 9.83-.072 19.66-.043 29.49-.022 13.137.028 19.638 8.419 16.453 21.766M403.01 217.934c7.485.005 14.472-.06 21.458.03 9.536.124 15.677 6.554 15.606 16.198-.065 8.906-6.294 14.85-15.713 14.887-10.147.04-20.295.056-30.442-.016-9.799-.07-15.856-5.936-15.943-15.275-.087-9.413 6.235-15.652 16.053-15.808 2.827-.044 5.655-.013 8.981-.016"/><path fill="#383942" d="M1636.691 959.063c5.212 4.078 10.063 8.238 15.113 12.662-.52 3.846-2.801 5.861-5.693 8.144-4.718 3.725-8.6 8.59-12.5 13.253-4.975 5.946-12.47 5.912-16.552-.512-1.475-2.322-2.889-3.012-5.154-1.169a59 59 0 0 1-4.345 3.21c-.786.528-1.846 1.365-2.552 1.18-4.71-1.232-9.294-3.05-14.056-3.941-2.25-.421-4.805.782-7.22 1.255-1.756.345-3.51.7-5.266 1.05.309-1.859.178-3.954 1.025-5.522 1.44-2.667 3.055-5.033 7.092-4.956 2.274.043 4.506-2.606 6.919-3.677 2.429-1.077 5.06-1.702 7.602-2.525q-.023-.717-.043-1.434c-2.41-1.364-4.819-2.73-8.402-4.76 7.087-1.305 12.572-2.274 18.038-3.343 2.092-.41 4.655-.443 6.114-1.69 5.04-4.305 10.446-5.546 16.662-3.04 1.09-1.566 1.974-2.835 3.218-4.185"/><path fill="#050609" d="M1382.97 943.897c-1.952-18.116 14.873-33.3 31.414-32.073 8.279.614 16.64.038 24.963.144 15.495.197 29.162 14.153 29.569 30.08.383 14.995-12.754 30.082-27.674 30.885-11.064.595-22.288 1.093-33.257-.084-14.547-1.56-24.579-13.9-25.015-28.952m72.83 13.81c8.023-9.482 6.782-25.764-2.876-32.456-3.436-2.107-6.774-5.809-10.325-6.026-11.693-.717-23.557-1.054-35.177.162-9.817 1.028-18.238 13.112-18 22.985.282 11.665 8.212 22.35 18.985 23.532 10.176 1.116 20.571 1.25 30.79.59 6.076-.394 12.506-2.219 16.602-8.786m-781.246 16.117c-14.583-2.755-23.78-10.892-27.036-25.022-4.31-18.703 10.032-36.736 29.113-36.873 8.651-.062 17.304-.022 25.956.037 17.081.118 30.386 13.453 30.4 30.419.015 17.157-13.05 30.384-30.12 30.663-9.294.152-18.584.547-28.313.776m-13.296-14.183c3.19 2.03 6.285 5.614 9.587 5.815 12.5.76 25.23 1.695 37.558.106 10.264-1.323 16.013-9.967 17.294-20.102 1.093-8.646-2.198-16.194-9.994-22.068-2.344-1.17-4.604-3.107-7.047-3.375-8.69-.951-17.438-1.73-26.169-1.773-4.696-.023-9.621.975-14.061 2.572-15.464 5.563-19.53 26.946-7.168 38.825m915.696-.717c-7.657 10.87-18.465 15.25-31.386 14.964-8.793-.194-17.74.221-26.334-1.272-20.419-3.547-30.843-28.449-19.81-46.21 5.787-9.313 14.37-14.08 25.277-14.394 7.814-.225 15.658.275 23.454-.165 12.73-.718 22.11 4.602 29.469 15.41 4.783 11.082 4.784 21.466-.67 31.667m-69.664-1.31c4.584 5.46 10.293 9.057 17.51 9.275 8.64.261 17.301.234 25.941-.048 12.545-.41 23.432-10.528 23.88-23.055.47-13.116-9.54-23.893-20.714-24.774-9.742-.769-19.593-1.203-29.33-.642-7.852.453-14.72 4.013-19.153 12.036-5.434 9.224-4.548 18.068 1.866 27.209"/><path fill="#040507" d="M826.9 916.78c6.156-1.742 11.943-4.04 17.896-4.614 8.08-.779 16.288-.293 24.441-.25 16.586.089 29.696 13.578 29.71 30.493.015 16.738-13.236 30.458-29.712 30.637-8.817.096-17.637.028-26.455-.027-12.958-.08-24.735-8.763-28.573-21.001-3.971-12.665.282-25.858 10.868-33.741.532-.397 1.02-.855 1.824-1.496m56.698 43.93c7.916-7.045 10.573-15.836 7.068-25.715-3.353-9.451-10.052-15.61-20.687-16.082-8.634-.384-17.285-.932-25.912-.719-6.022.15-11.805 1.953-16.685 7.09-7.316 7.722-9.625 16.64-5.345 26.506 4.4 10.143 12.645 15.018 23.63 15.169a624 624 0 0 0 20.927-.062c6.09-.122 11.839-1.409 17.004-6.187"/><path fill="#383942" d="M1577.193 959.197c5.214-10.473 5.213-20.857.703-31.755 5.178-.4 5.56-5.258 6.671-8.352 1.72-4.79 1.827-10.131 7.28-12.83.553-.274-.13-2.508.382-3.518.994-1.963 2.274-5.068 3.715-5.232 2.529-.287 5.47.935 7.81 2.274.8.457.851 3.358.323 4.806-2.227 6.108-2.017 6.616 5.385 8.151-.89-5.526-.163-10.218 6.543-11.194 2.978 2.994 3.822 6.417 2.671 10.673-.229.848 2.303 2.441 3.915 3.736.36 3.736.368 7.428.36 11.58-2.385-.02-4.736-.67-7.128-.916-1.277-.131-3.008.003-3.871.767-2.788 2.467-5.444 3.712-9.4 2.566-1.666-.482-4.87.67-5.848 2.113-4.7 6.937-7.308 14.62-5.469 23.165.76 3.533-1.038 6.003-4.388 5.54-3.138-.433-6.275-.869-9.654-1.574"/><path fill="#010204" d="M959.788 934.663c2.933-1.056 5.552-2.419 8.225-2.534 7.296-.313 14.615-.162 21.924-.077 6.562.077 11.05 4.548 11.094 10.86.048 6.863-4.075 11.049-11.196 11.141-7.308.095-14.62-.06-21.927.055-5.126.081-9.417-1.585-11.288-6.461-1.756-4.578-1.173-9.183 3.168-12.984"/><path fill="#020305" d="M2254 811.927c-5.322-.544-8.83-3.378-8.65-8.16.11-2.909 2.35-6.399 4.686-8.394 2.9-2.479 7.162-1.611 9.386 1.219 1.802 2.293 2.799 5.952 2.604 8.903-.266 4.041-3.61 6.014-8.025 6.432"/><path fill="#010204" d="M2288.764 710.66c-2.154-2.4-4.83-4.413-5.535-6.97-1.375-4.986 2.586-9.831 7.557-10.382 4.373-.484 8.724 3.303 9.211 8.016.532 5.149-3.126 9.385-8.378 9.652-.824.042-1.657-.111-2.855-.316M121.747 798.535c2.11 4.232 1.83 8.133-1.638 10.642-2.128 1.54-5.473 2.448-8.048 2.078-3.912-.563-6.069-3.51-6.186-7.84-.11-4.075 1.824-6.682 5.212-8.256 4.237-1.967 7.707-.496 10.66 3.376M76.87 693.257c6.223 2.026 9.111 5.79 8.003 10.423-.975 4.074-3.658 6.833-7.898 7.14-4.3.311-7.432-2.26-8.7-6.098-1.36-4.124-.026-7.914 3.99-10.19 1.255-.712 2.813-.892 4.605-1.275"/><path fill="#090a0d" d="M508.174 846.414c2.02-.778 3.97-1.099 6.366-.977.445 2.682.445 4.921.445 7.818h17.04a216 216 0 0 0-.979 6.125c-5.305.422-10.614.549-15.922.538-5.636-.012-6.977-1.4-7.06-7.071-.028-1.992.025-3.984.11-6.433"/><path fill="#b6b8be" d="M125.823 695.231c-3.395 1.535-6.334 3.076-9.384 4.355-1.19.498-2.626.405-4.776.692 7.808-11.947 29.621-11.995 38.811.18-1.482-.223-3.328.04-4.386-.75-5.995-4.477-12.613-5.752-20.265-4.477m41.031 101.289c-2.142-10.794-8.62-16.529-18.875-18.435-.978-.182-1.761-1.415-2.635-2.16.978-.391 1.964-1.142 2.932-1.12 12.189.28 24.474 15.256 22.36 27.211-.124.7-.739 1.315-1.125 1.97l-1.468.095c-.377-2.383-.754-4.766-1.19-7.561m606.358 135.493c7.37.589 10.848 4.741 10.064 11.509-.67 5.772-4.97 9.204-10.663 8.508-4.3-.526-7.15-3.723-7.565-8.489-.512-5.869 2.07-9.694 8.164-11.528m-5.284 9.577c-.076 4.277 1.23 7.882 6.036 8.166 4.323.255 6.005-2.879 6.345-6.79.412-4.745-1.753-8.539-5.329-8.846-4.649-.4-6.46 2.549-7.052 7.47"/><path fill="#090a0d" d="M1853.207 851.99c1.943.323 3.887.647 6.19.969.314 5.585-.845 6.889-6.088 6.974-3.806.062-7.613-.02-11.888-.11-.789-1.99-1.11-3.906-.98-6.275 4.556-.82 8.66-1.19 12.766-1.559"/><path fill="#c0c1c6" d="M125.182 704.607a265 265 0 0 1-6.394 2.07c4.812-8.803 18.56-9.707 24.747-2.912.602.661.527 1.939.766 2.93-1.198-.04-2.647.343-3.553-.192-4.82-2.846-9.721-4.375-15.566-1.896"/><path fill="#b6b8be" d="M757.158 943.875c1.674-4.26 3.23-8.159 4.786-12.058l2.022.857c-2.145 5.965-4.218 11.958-6.579 17.836-.175.436-3.382.407-3.54-.018-2.22-5.936-4.155-11.978-5.278-18.339 4.329 3.883 4.348 9.758 7.078 14.665.501-.93.947-1.757 1.51-2.943"/><path fill="#b9babf" d="M150.858 783.061c7.843 3.22 11.997 8.767 12.313 16.898.045 1.158-1.111 2.363-1.711 3.546-.749-1.106-2.064-2.169-2.152-3.325-.519-6.772-3.237-11.712-10.061-13.937-1.444-.47-2.61-1.797-3.903-2.73 1.715-.185 3.43-.371 5.514-.452"/><path fill="#c0c1c6" d="M138.474 802.438c1.25-3.53 3.652-5.175 6.559-3.426 1.708 1.028 3.512 3.944 3.221 5.663-.282 1.668-3.112 3.953-4.957 4.084-3.506.25-5.03-2.5-4.823-6.32"/><path fill="#aeafb5" d="M787.442 951.75c-2.188-5.788-1.608-17.295 1.423-20.438v17.626l8.8.855-.044 2.09c-3.25 0-6.498 0-10.179-.132"/><path fill="#c0c1c6" d="M132.707 707.959c1.879.665 3.341 1.289 5.5 2.209l-6.74 6.252-7.841-6.478c3.678-.86 6.17-1.443 9.08-1.983"/><path fill="#b6b8be" d="M150.32 795.872a253 253 0 0 0-5.525-4.458l1.415-2.027c2.352 1.567 5.156 2.744 6.937 4.805 2.063 2.388 3.405 5.531 1.03 10.326-1.532-3.557-2.566-5.957-3.856-8.646"/><path fill="#060708" d="M205.601 915.968c-.465 2.703-1.79 2.714-3.537.345 1-.352 2.069-.36 3.537-.345"/><path fill="#090a0d" d="M508.183 193.314c.236.304.407.948.32 1.652-.3-.398-.343-.855-.32-1.652"/><path fill="#ecedf0" d="M361.738 963.351c.996 2.95 2.915 5.924 2.296 8.212-1.222 4.516-5.695 5.1-9.826 5.107-16.314.03-32.629.03-48.943-.061-12.647-.07-25.331.266-37.933-.569-24.196-1.604-44.329-12.187-60.724-29.83-2.988-3.216-5.512-7.197-7.138-11.27-2.68-6.706.28-10.356 7.358-10.308 24.305.166 48.62.812 72.912.297 33.724-.715 60.766 12.02 81.998 38.422"/><path fill="#343640" d="M324.99 285.013c9.588 3.639 19.462 6.673 28.7 11.05 16.079 7.618 29.88 18.74 42.608 31.006 17.334 16.707 30.557 36.367 39.777 58.655 1.97 4.762 3.849 9.562 5.717 14.365.15.387-.108.933-.306 2.298-7.647-7.553-16.919-5.199-25.666-5.311-15.663-.202-31.355.494-46.987-.23-10.374-.48-17.907 3.628-24.67 10.64-9.479 9.829-18.67 19.98-28.698 29.22-11.036 10.167-12.38 26.65-2.192 37.482 11.845 12.594 24.362 24.557 36.652 36.729 4.687 4.642 10.801 5.866 17.023 5.92 19.664.168 39.34.394 58.99-.153 5.272-.147 10.47-2.974 15.544-4.522 1.051 6.366-16.918 41.345-31.66 58.339-22.692 26.16-49.743 46.055-83.61 56.149 6.109-6.725 4.781-14.749 4.801-22.468.047-18.332-.026-36.665.088-54.996.04-6.556-2.195-11.903-6.873-16.509-11.164-10.989-22.142-22.167-33.247-33.215-11.12-11.063-26.719-11.602-37.983-.679-12.07 11.706-23.956 23.656-35.119 36.214-3.323 3.739-5.384 9.841-5.54 14.936-.623 20.313-.564 40.664-.07 60.983.129 5.273 2.751 10.484 4.3 15.981-19.193-5.712-37.085-15.504-53.365-28.278-29.368-23.042-50.713-51.823-61.88-88.114 6.911 6.863 15.369 5.709 23.804 5.68 16.973-.055 33.95.367 50.922.739 7.82.171 14.216-2.647 19.66-8.137 10.914-11.005 21.937-21.9 32.857-32.9 11.438-11.52 11.497-27.126.085-38.686-11.24-11.386-22.628-22.624-33.892-33.986-4.233-4.27-9.249-6.227-15.241-6.209-19.999.062-40-.156-59.995.118-5.613.077-11.207 1.478-17.276 2.338 5.024-18.131 14.466-35.08 26.04-50.771 24.283-32.918 59.469-55.967 91.986-64.711-9.34 7.998-8.117 18.032-8.17 27.685-.089 16.498.027 32.998-.057 49.496-.04 7.727 2.467 14.134 8.064 19.664 10.54 10.414 20.673 21.24 31.11 31.762 12.534 12.637 27.95 12.668 40.533.164 10.52-10.455 20.954-20.997 31.419-31.508 5.273-5.297 8.068-11.43 7.961-19.171-.28-20.329-.213-40.663-.095-60.994.035-5.994-1.697-11.102-5.894-15.77-.145-.307-.155-.295-.155-.295"/><path fill="#353740" d="M221.072 339c-.02-13.152.054-25.804-.107-38.454-.065-5.039 1.988-8.078 6.778-9.71 21.023-7.162 42.527-8.813 64.34-5.193 8.293 1.377 16.405 3.924 24.53 6.183 4.086 1.136 5.47 4.265 5.448 8.452-.107 20.808.207 41.623-.298 62.42-.098 4.042-2.248 8.87-5.034 11.863-10.429 11.202-21.467 21.84-32.37 32.595-7.681 7.579-17.058 8.004-24.896.525-11.558-11.03-22.93-22.284-33.814-33.971-2.66-2.857-4.01-7.687-4.386-11.754-.685-7.428-.192-14.965-.191-22.956m43.429 1.86h32.515l.444-1.447-25.821-27.126-25.927 27.255.575 1.32c5.738 0 11.477 0 18.214-.002"/><path fill="#343740" d="M322.455 613.184c.088 5.471-3.378 7.63-7.39 8.594-8.22 1.976-16.492 4.009-24.863 5.046-18.11 2.243-36.145 1.129-53.977-2.86-.81-.182-1.622-.355-2.42-.58-12.08-3.405-12.816-4.42-12.789-16.896.04-18.5.115-36.999-.009-55.497-.033-5.014 1.639-9.104 5.082-12.555 11.064-11.09 22.08-22.232 33.276-33.187 7.34-7.183 17.304-7.089 24.525.058 11.364 11.247 22.81 22.424 33.805 34.025 2.354 2.484 4.02 6.614 4.142 10.052.68 19.128.8 38.275 1.07 57.417.028 1.987-.215 3.978-.452 6.383m-30.999-33.254 6.83-7.665h-53.751l25.857 27.003a7523 7523 0 0 0 21.064-19.338"/><path fill="#353640" d="M418.973 405.991c15.6.013 15.896-.051 19.167 15.023 5.651 26.044 5.294 52.054-1.969 77.793-2.16 7.657-3.572 8.888-11.59 8.992-19.639.255-39.284.231-58.922-.036-3.112-.042-7.053-1.059-9.156-3.114-12.488-12.201-24.833-24.578-36.64-37.435-6.708-7.306-5.865-15.582 1.003-22.682 10.755-11.118 21.605-22.145 32.33-33.291 3.562-3.7 7.612-5.435 12.85-5.372 17.476.209 34.955.105 52.927.122m-13.185 41.726-18.5-18.022V482l1.178.74 24.57-27.552c-1.451-1.5-4.098-4.236-7.248-7.471"/><path fill="#353740" d="M130.002 405.96c14.49.003 28.546.84 42.447-.273 9.987-.799 16.386 3.705 22.549 9.999 8.848 9.036 17.594 18.171 26.436 27.213 8.675 8.87 8.784 18.336.064 27.158-10.888 11.016-21.916 21.893-32.785 32.927-3.384 3.435-7.33 4.965-12.07 4.95-14.156-.047-28.314.056-42.469-.068-6.306-.056-12.607-.557-18.913-.778-4.162-.145-6.523-2.669-7.387-6.263-2.129-8.857-4.681-17.722-5.62-26.734-1.933-18.571-1.12-37.113 3.585-55.337 3.12-12.084 3.913-12.754 16.17-12.768 2.498-.004 4.996-.016 7.993-.025m7.75 41.296-9.046 9.23 1.538-1.58 25.47 27.262v-52.388a8612 8612 0 0 1-17.963 17.476"/><path fill="#343640" d="M325.005 284.996a15 15 0 0 0-.36-.437c.093.05.186.101.312.303.033.15.043.139.048.134M101.472 402.418c.063-.046-.063.046 0 0m341.093 1.02c.05.079-.15.11-.15.11s.101-.19.15-.11M100.53 508.565c-.048.033.048-.032 0 0m119.006 118.981c-.067.036.068-.037 0 0m105.047-.102c.054.073-.156.096-.156.096s.1-.17.156-.096m1887.451-111.426a5968 5968 0 0 0 21.38 8.33c-.174 13.017-38.992 56.707-58.642 61.438-9.733-38.759-33.258-62.039-74.548-58.195-33.795 3.146-52.573 25.796-59.654 59.225-26.86-14.368-46.123-35.4-59.986-62.375 39.645-10.311 60.3-34.92 57.01-75.75-2.282-28.336-23.34-52.366-56.961-58.328 4.029-17.688 40.497-56.184 59.872-63.112 8.956 38.86 32.268 61.2 73.262 59.172 28-1.385 54.472-23.187 60.923-58.874 18.751 5.695 56.227 44.756 60.002 62.646-32.325 6.506-53.024 25.482-57.32 58.47-3.82 29.338 8.558 52.11 34.662 67.353"/><path fill="#343740" d="M2161.655 572.509c8.722 23.975 4.175 45.352-13.077 62.977-16.627 16.986-37.359 21.967-60.056 13.694-21.85-7.964-34.964-23.987-38.3-47.016-4.476-30.905 15.596-59.073 46.048-65.745 24.114-5.283 50.86 7.373 62.184 29.44 1.065 2.073 2.04 4.193 3.201 6.65m-61.466 18.949c2.523 1.848 2.19 3.526.062 5.617-6.018 5.91-11.874 11.986-18.038 18.244l4.658 4.318 20.788-20.61 20.92 19.639 3.89-3.49-21.567-21.93 21.885-19.63-4.873-4.588-21.012 21.64-19.52-21.113-5.895 3.838a6418 6418 0 0 1 18.702 18.065"/><path fill="#353740" d="M2097.303 262.045c18.029-2.584 33.583 2.138 47.609 12.843 16.186 12.354 24.87 37.628 19.462 57.352-6.842 24.953-22.415 40.827-48.295 45.155-16.243 2.716-31.01-1.713-43.993-11.835-24.956-19.457-29.952-55.224-11.243-80.244 9.079-12.14 20.77-20.527 36.46-23.271m22.757 46.345c-3.99-6.863-7.982-13.725-12.428-21.37l-30.339 52.481h60.411a26979 26979 0 0 1-17.644-31.111"/><path fill="#363841" d="M1992.462 402.347c24.213 10.944 37.347 29.457 37.258 55.593-.117 34.074-27.925 56.943-57.062 57.304-30.6.379-54.163-21.354-58.26-49.75-5.396-37.41 23.353-66.943 56.133-66.363 7.206.128 14.381 2 21.93 3.216m3.47 69.11V432.89h-48.183v47.915h48.18c0-3.088 0-5.725.003-9.348"/><path fill="#353740" d="M2262.823 511.931c-36.067 11.86-71.142-9.9-76.97-47.404-5.28-33.982 21.537-64.738 55.995-65.735 30.465-.881 53.749 21.688 58.586 47.554 5.107 27.307-10.71 55.815-37.611 65.585m-22.736-26.48c19.229 1.6 34.82-13.765 32.417-31.946-2.028-15.35-14.674-26.34-29.828-25.922-15.147.417-27.2 11.763-28.465 26.793-1.273 15.138 9.176 28.037 25.876 31.075"/><path fill="#4d4e58" d="M1853.139 851.525c-4.037.833-8.142 1.203-12.706 1.648-35.11.001-69.76-.137-104.412-.138-397.19-.01-794.382 0-1191.573.008-3.832 0-7.664.052-11.96.146-5.872.066-11.282.066-17.503.066 0-2.897 0-5.136-.062-7.823-.005-37.257.1-74.065.102-110.873.009-207.372-.006-414.744-.015-622.116 0-1.5-.024-2.998-.094-4.962-.057-4.579-.057-8.693-.057-13.11h1337.797c.218 3.291.433 6.541.741 10.169-.067 49.509-.352 98.642-.365 147.774-.052 197.917-.02 395.833-.017 593.75 0 1.665.037 3.331.124 5.461"/><path fill="#353740" d="M303.308 705.608c48.454 24.128 53.604 89.338 9.848 120.61-26.215 18.735-63.234 15.232-86.69-6.919-23.15-21.863-27.781-56.915-14.463-82.044 13.927-26.278 36.21-39.391 65.996-37.958 8.403.404 16.653 4.002 25.309 6.311m1496.734 208.391c35.815-.019 71.136-.042 106.458-.048 7.026-.002 8.858 1.563 8.501 8.446-.98 18.93-10.355 33.655-25.918 43.21-22.76 13.974-47.085 15.489-71.339 3.199-18.643-9.447-28.44-25.422-31.563-45.727-.963-6.264 1.621-8.996 7.87-9.06 1.832-.019 3.665-.013 5.99-.02m60.037 35.005 1.162 1.896c.507-.508 1.382-.968 1.456-1.532.27-2.062.273-4.16.364-5.975 7.505-2.445 4.7 6.815 10.559 8.2-2.183-5.63-3.03-9.98-1.507-15.165 1.278-4.349-3.835-5.024-7.68-5.3-3.936-.284-4.821 1.525-4.571 5.03.283 3.962.148 7.956.217 12.846m-14.233-13.65-5.35 16.05c4.73-1.172 3.577-8.408 8.658-6.27 2.707 1.139 4.79 3.759 8.346 6.692-2.24-6.757-3.912-12.095-5.824-17.345-.45-1.235-1.715-2.173-2.605-3.247-1.006 1.124-2.013 2.248-3.225 4.12m-25.107 4.476-3.495-4.226 7.368-2.803c-3.106-2.488-7.526-2.176-9.384 1.01-2.108 3.613-.216 5.923 2.922 7.628.87.473 2.063.63 2.63 1.322.94 1.152 2.29 2.85 1.99 3.89-.303 1.046-2.337 1.944-3.747 2.22-1.508.295-3.173-.213-6.062-.498 3.551 3.822 6.675 3.682 9.48 2.36 1.527-.718 3.628-3.216 3.31-4.242-.729-2.355-2.782-4.3-5.012-6.66m59.292-2.115v13.376l2.358.024V934.27l6.555-1.006-.147-1.237h-15.147c1.795 3.146 6.97-.205 6.381 5.69m-43.973 9.48v-12.76l6.124-1.373-.27-1.258h-14.487l-.124 1.197 6.42 1.509v16.5l1.525.02c.27-.974.54-1.947.812-3.835"/><path fill="#363942" d="M517.05 976.889c-18.936-.789-35.124-6.665-48.193-20.407-9.363-9.846-14.425-21.36-15.628-34.728-.42-4.655 2.53-7.756 7.567-7.762 38.305-.045 76.61-.046 114.916-.015 5.524.005 7.505 1.973 7.255 7.682-.727 16.638-8.288 29.868-20.935 40.311-12.897 10.65-28.207 14.352-44.981 14.919m.542-53.056-20.43 17.673.903 1.518h4.04c0 3.155.012 5.811-.002 8.467-.053 9.95-.056 9.955 9.885 9.404.454-.025.893-.335 2.01-.78V947.34h8.463v13.316h11.996v-17.534l4.567.302.74-1.309c-7.14-6.085-14.28-12.17-22.172-18.282"/><path fill="#33353e" d="M1688.958 976.125c-4.15-.489-8.301-.978-12.583-2.03 3.924-3.167 7.228-7.403 13.681-6.448-.463-1.565-.457-3.516-1.261-3.944-5.167-2.748-4.778-7.882-5.345-12.505a439 439 0 0 1 8.071-.358l-.074-1.622-8.484-.757v-17.036l-2.402-.061c-.216 4.877-.432 9.754-1.024 14.579-3.795-.68-7.215-1.308-10.656-2.362 2.326-1.172 4.673-1.917 7.02-2.663l-.147-.674-6.846-.632v-5.605l7.761-.738-.07-1.414h-11.084c0 5.005 0 10.101-.508 15.174-1.182-.068-1.858-.11-2.532-.502-1.301-2.292-2.472-4.345-3.945-6.15-1.416-1.738-3.145-3.22-4.737-4.815 2.167-.635 4.338-1.258 6.496-1.923.264-.081.458-.39 2.021-1.788-3.558-.218-5.892-.362-8.248-.91-.875-2.016-1.443-3.89-2.637-5.191-3.682-4.014-7.603-7.808-11.431-11.688 15.693-.021 31.386-.042 47.544.38.059 3.903 1.243 5.858 4.616 7.717 3.763 2.073 6.604 5.82 9.407 8.908-2.55.07-4.66.07-6.958.07v19.324h10.762l.075-1.226-8.133-.722V942.3l7.434-.973-.072-1.378-7.207-.764v-5.036c2.852-.423 5.263-.78 8.15-1.14 2.057.125 3.637.253 4.936.636-1.07 3.664-2.853 7.2-2.443 10.459.828 6.592 9.208 9.45 14.208 5.362-9.923-1.42-12.464-3.456-11.682-9.36.665-5.016 4.05-6.998 10.382-5.687 3.107 1.771 6.2 3.163 9.37 5.01.11 3.454.039 6.458.2 9.45.129 2.373 1.108 3.14 3.353 1.107 3.665 1.733 6.95 3.429 10.234 5.124-6.728 5.104-13.312 10.418-20.26 15.204-2.63 1.812-6.099 2.406-9.623 3.237-4.456-2.094-8.436-3.964-12.501-5.622-6.593-2.69-12.255.978-12.828 8.196"/><path fill="#393b44" d="M1744.449 954.933c-3.563-1.518-6.848-3.214-10.571-5.407-.44-5.394-.44-10.29-.44-15.039l5.718-1.574-.188-1.18h-14.225l-.71 1.177c3.405.924 7.801 1.019 6.272 6.065-3.093-1.393-6.185-2.785-8.968-4.66 2.5-2.907.209-3.366-1.216-3.158-3.139.46-6.2 1.456-9.293 2.233-1.58-.128-3.16-.256-5.29-.722a73 73 0 0 0-3.538-1.672c-3.242-3.018-6.083-6.764-9.846-8.837-3.373-1.859-4.557-3.814-4.147-7.683 20.828-.416 41.654-.446 62.48-.416 6.165.01 8.953 2.774 8.32 9.008-1.223 12.04-5.246 22.967-14.358 31.865m-61.438-3.665c1.006 4.553.617 9.687 5.784 12.435.804.428.798 2.38 1.261 3.944-6.453-.955-9.757 3.281-13.98 6.21-16.985-2.993-29.77-12.416-38.296-26.9-3.855-6.548-6.008-14.317-7.806-21.803-2.123-8.834.234-11.155 9.592-11.122 4.256 3.91 8.177 7.704 11.86 11.718 1.193 1.3 1.76 3.175 2.382 5.424-4.322 4.597-3.99 7.796.8 10.34.878.467 2.123.576 2.664 1.268.914 1.168 1.989 2.733 1.855 4.011-.086.833-2.125 1.852-3.411 2.07-1.6.27-3.325-.2-5.601-.404 4.333 4.52 9.094 3.64 12.359-1.584.675.043 1.35.086 2.576.548 1.408 4.163 7.415 5.166 12.765 1.912-2.963-.374-5.31-.671-7.804-1.254-.466-.561-.784-.837-1.184-1.479-.03-1.108.023-1.851.075-2.594 3.42.627 6.84 1.255 10.71 2.337.484 2.57.044 5 3.4 4.923m6.275 25.096c.244-7.457 5.906-11.125 12.499-8.435 4.065 1.658 8.045 3.528 12.129 5.645-8.056 1.238-16.177 2.133-24.628 2.79"/><path fill="#3b3c45" d="M1455.235 958.044c-3.532 6.231-9.962 8.056-16.037 8.45-10.22.66-20.615.526-30.791-.59-10.773-1.181-18.703-11.867-18.984-23.532-.239-9.873 8.182-21.957 18-22.985 11.62-1.216 23.483-.879 35.176-.162 3.551.217 6.889 3.92 10.218 6.509-3.078 2.196-6.049 3.91-9.293 5.343-2.084-.816-3.882-1.753-5.71-1.816-6.124-.21-12.26-.15-18.39-.118-13.331.07-12.048-1.895-12.222 12.215-.151 12.213.341 9.675 9.885 10.93.209.932.3 1.303.265 1.993.646 5.172 4.615 1.4 6.702 3.178 2.143 4.59 5.378 6.398 10.15 5.288 6.997-1.627 14.02-3.141 21.031-4.703"/><path fill="#33353e" d="M1455.517 957.876c-7.293 1.73-14.316 3.244-21.313 4.871-4.772 1.11-8.007-.698-9.7-5.354 3.64-.508 6.874-.605 10.108-.702l.016-2.73h-17.148c-.092-.37-.184-.741.073-1.751 7.448-.64 14.548-.71 21.645-.609 3.144.045 4.528-1.254 4.501-4.398-.044-5.282.058-10.564.099-15.847 2.97-1.713 5.94-3.426 9.24-5.355 9.544 5.942 10.785 22.224 2.48 31.875m-739.325-33.973c7.305 5.364 10.596 12.912 9.503 21.558-1.281 10.135-7.03 18.78-17.294 20.102-12.328 1.59-25.058.655-37.558-.106-3.302-.201-6.397-3.785-9.437-6.277 5.313-2.38 10.703-3.856 15.565-6.357 3.692-1.9 6.714-5.102 10.495-7.8 4.412-.098 8.369-.009 12.309-.227.993-.055 1.933-1.092 2.897-1.678-.942-.681-1.846-1.879-2.833-1.952-3.93-.291-7.886-.231-11.835-.695.423-6.74 3.904-10.355 9.65-11.575 6.25-1.327 12.364-3.3 18.538-4.993"/><path fill="#393b44" d="M687.005 945.098c-3.32 2.623-6.34 5.826-10.033 7.725-4.862 2.501-10.252 3.977-15.734 6.06-12.343-11.12-8.277-32.503 7.187-38.066 4.44-1.597 9.365-2.595 14.061-2.572 8.73.043 17.48.822 26.169 1.773 2.443.268 4.703 2.204 7.293 3.63-5.929 1.947-12.043 3.921-18.294 5.248-5.745 1.22-9.226 4.835-10.103 11.65-3.228.472-6.014.336-8.77.564-.797.066-1.507 1.177-2.257 1.81.723.665 1.395 1.824 2.18 1.907 2.746.29 5.531.21 8.301.27"/><path fill="#3b3c45" d="M1505.96 929.95c3.897-7.566 10.764-11.126 18.616-11.579 9.737-.561 19.588-.127 29.33.642 11.174.881 21.184 11.658 20.715 24.774-.449 12.527-11.336 22.645-23.881 23.055-8.64.282-17.301.31-25.94.048-7.218-.218-12.927-3.814-17.196-9.583 4.095-.056 7.872.373 11.652.402 5.104.04 10.232.006 15.306-.465 2.575-.238 5.317-1.074 7.505-2.418 2.38-1.46 4.203-3.825 6.44-5.958-.339-3.138-.563-6.592-1.14-9.986-.29-1.7-.837-4.085-3.722-1.86-1.781-.922-3.273-1.696-4.789-2.884-3.614-1.49-7.204-2.566-11.627-3.89l1.861 5.985c-6.358-4.731-6.323-4.361-14.293-3.587-2.832.275-5.885-1.731-8.837-2.696"/><path fill="#33353e" d="M1505.691 930.179c3.221.736 6.274 2.742 9.106 2.467 7.97-.774 7.935-1.144 14.293 3.587l-1.86-5.986c4.422 1.325 8.012 2.4 11.263 3.892-5.935 1.14-8.764 3.676-8.926 8.114-.145 3.987 2.983 7.836 6.899 8.488 3.92.653 8.161-1.893 8.814-6.108.366-2.362-.846-4.967-1.346-7.463 2.596-2.373 3.143.012 3.432 1.712.578 3.394.802 6.848 1.14 9.986-2.236 2.133-4.06 4.497-6.439 5.958-2.188 1.344-4.93 2.18-7.505 2.418-5.074.47-10.202.504-15.306.465-3.78-.029-7.557-.458-11.784-.708-6.597-8.526-7.483-17.37-1.78-26.822m-622.71 30.811c-4.55 4.5-10.3 5.786-16.39 5.908a624 624 0 0 1-20.925.062c-10.986-.151-19.23-5.026-23.63-15.169-4.28-9.866-1.972-18.784 5.814-26.353 3.84 1.289 7.134 2.843 10.595 3.464 5.166.925 10.835-.786 15.491 3.556.075 3.04.075 5.628.075 8.541-3.182 0-5.67-.142-8.125.078-.856.077-1.631 1.05-2.443 1.615.843.543 1.653 1.483 2.535 1.555 2.563.211 5.155.075 8.096.075 0 3.18-.146 5.672.081 8.128.079.843 1.094 1.6 1.68 2.396.555-.843 1.362-1.62 1.6-2.544.28-1.094.17-2.323.056-3.478-.337-3.442.912-5.099 4.54-3.848.539 1.51.785 3.063 1.672 3.654 6.353 4.23 12.836 8.264 19.278 12.36"/><path fill="#393b44" d="M883.29 960.85a402 402 0 0 1-19.586-12.22c-.887-.59-1.133-2.144-1.26-3.722.91-.475 1.465-.333 1.884-.511 1.277-.543 2.501-1.21 3.746-1.828-1.324-.54-2.61-1.37-3.982-1.552-2.012-.266-4.086-.068-6.442-.068 0-3.406.108-6.033-.068-8.64-.051-.768-.91-1.48-1.398-2.218l-2.32 1.916c-4.583-3.891-10.252-2.18-15.418-3.105-3.461-.62-6.756-2.175-10.298-3.628 4.113-5.126 9.896-6.93 15.918-7.079 8.627-.213 17.278.335 25.912.719 10.635.473 17.334 6.63 20.687 16.082 3.505 9.88.848 18.67-7.375 25.855"/><path fill="#3b3c45" d="M767.944 941.18c.576-4.511 2.386-7.46 7.035-7.06 3.576.307 5.741 4.101 5.33 8.846-.34 3.911-2.023 7.045-6.346 6.79-4.807-.284-6.112-3.889-6.02-8.576"/><path fill="#b6b8be" d="M264.001 340.861c-6.237.002-11.976.002-17.714.002l-.575-1.321 25.927-27.255 25.821 27.126-.444 1.447zm-2.287-10.644-4.767 5.1H286.4l-14.61-15.308c-3.54 3.574-6.568 6.63-10.075 10.208m29.491 249.967c-6.983 6.419-13.716 12.584-20.814 19.084l-25.857-27.003h53.75a1980 1980 0 0 1-7.079 7.919m-15.984 8.536 11.165-11.452h-28.564l15.285 14.262c.078-.11.847-1.209 2.114-2.81M406.04 447.966c2.898 2.986 5.545 5.722 6.995 7.222l-24.569 27.552-1.177-.74v-52.305c6.783 6.608 12.641 12.315 18.75 18.271m-9.934 19.635c3.615-3.587 7.23-7.173 9.528-9.455l-13.396-13.82v26.551c1.453-1.199 2.408-1.987 3.868-3.276m-258.092-20.583a16502 16502 0 0 0 17.7-17.237v52.388l-25.469-27.263-1.538 1.581c3.015-3.076 6.03-6.153 9.307-9.469m6.908 18.563 4.483 5.782 1.25-1.139v-25.811l-14.599 13.199c2.93 2.616 5.648 5.042 8.866 7.969"/><path fill="#b9babf" d="M2099.939 591.193c-5.99-5.795-11.732-11.326-18.452-17.8l5.895-3.838 19.52 21.112 21.012-21.639 4.873 4.588-21.885 19.63 21.567 21.93-3.89 3.49-20.92-19.639-20.788 20.61-4.658-4.318c6.164-6.258 12.02-12.333 18.038-18.244 2.128-2.09 2.461-3.77-.312-5.882"/><path fill="#b6b8be" d="M2120.234 308.713a52320 52320 0 0 0 17.47 30.788h-60.41l30.338-52.481c4.446 7.645 8.437 14.507 12.602 21.693m-14.224-7.192-18.37 32.224h39.732c-6.352-11.22-12.372-21.902-18.51-32.514-.258-.446-1.622-.252-2.852.29"/><path fill="#b9babf" d="m1995.93 471.95-.001 8.855h-48.18V432.89h48.182zm-21.43-33.685h-20.562v36.514h35.8v-36.518c-4.986 0-9.614 0-15.237.004m265.169 47.105c-16.283-2.957-26.732-15.856-25.459-30.994 1.264-15.03 13.318-26.376 28.465-26.793 15.154-.417 27.8 10.573 29.828 25.922 2.403 18.181-13.188 33.545-32.834 31.865m21.828-14.492c3.773-4.846 4.989-10.375 4.479-16.403-1.033-12.203-10.82-20.844-23.275-20.504-12.425.34-21.712 9.573-21.96 21.834-.2 9.927 5.013 18.397 13.48 21.903 9.247 3.828 19.052 1.54 27.276-6.83"/><path fill="#aeafb5" d="M1860.067 948.549c-.058-4.435.077-8.429-.206-12.392-.25-3.504.635-5.313 4.571-5.03 3.845.277 8.958.952 7.68 5.301-1.523 5.185-.676 9.535 1.507 15.165-5.858-1.385-3.054-10.645-10.56-8.2-.09 1.816-.093 3.913-.363 5.975-.074.564-.949 1.024-1.456 1.532-.387-.632-.775-1.264-1.173-2.351m4.397-14.706-2.057 6.116 1.78 1.34 5.518-4.1c-1.465-1.136-2.929-2.272-5.24-3.356m-18.517 1.137c1.109-1.498 2.116-2.622 3.122-3.746.89 1.074 2.155 2.012 2.605 3.247 1.912 5.25 3.583 10.588 5.824 17.345-3.555-2.933-5.639-5.553-8.346-6.692-5.081-2.138-3.928 5.098-8.658 6.27a4721 4721 0 0 0 5.453-16.424m.553 7.419c1.468.11 2.936.222 5.13.388l-2.214-6.771-1.115.197c-.65 1.819-1.3 3.638-1.801 6.186m-25.406-2.444c1.873 2.236 3.926 4.18 4.655 6.536.318 1.026-1.783 3.524-3.31 4.243-2.805 1.32-5.929 1.46-9.48-2.361 2.889.285 4.554.793 6.062.498 1.41-.276 3.444-1.174 3.747-2.22.3-1.04-1.05-2.738-1.99-3.89-.567-.692-1.76-.85-2.63-1.322-3.138-1.705-5.03-4.015-2.922-7.628 1.858-3.186 6.278-3.498 9.384-1.01l-7.368 2.803c1.165 1.409 2.33 2.818 3.852 4.351m58.932-2.708c.591-5.426-4.583-2.075-6.378-5.221h15.147l.147 1.237-6.555 1.006v16.847l-2.358-.024c0-4.459 0-8.918-.003-13.845m-43.971 10.406c-.27 1.43-.54 2.404-.81 3.378l-1.526-.02v-16.5l-6.42-1.509.124-1.197h14.487l.27 1.258-6.124 1.374z"/><path fill="#c0c1c6" d="M517.97 923.846c7.515 6.099 14.655 12.184 21.794 18.27l-.739 1.308-4.567-.302v17.534h-11.996V947.34h-8.464v12.775c-1.116.445-1.555.755-2.009.78-9.94.551-9.938.545-9.885-9.404.014-2.656.002-5.312.002-8.467h-4.04l-.903-1.518c6.81-5.891 13.62-11.782 20.806-17.66"/><path fill="#aeafb5" d="M1668.88 943.581c-.03 1.17-.083 1.913-.018 3.386.51.953.903 1.176 1.296 1.4l7.657.968c-5.35 3.254-11.357 2.251-12.258-1.888-.042-5.49-.042-10.587-.042-15.592h11.084l.07 1.414-7.761.738v5.605l6.846.632.147.674c-2.347.746-4.694 1.491-7.02 2.663m32.68-12.514c1.435.374 2.43.819 3.5 1.604-2.336.698-4.747 1.055-7.6 1.478v5.036l7.208.764.072 1.378-7.434.973v6.213l8.133.722-.075 1.226h-10.762v-19.323c2.298 0 4.409 0 6.958-.07"/><path fill="#b6b8be" d="M1662.475 946.527c-3.266 5.572-8.027 6.453-12.36 1.932 2.276.205 4.001.675 5.6.404 1.287-.218 3.326-1.237 3.412-2.07.134-1.278-.941-2.843-1.855-4.01-.54-.693-1.786-.802-2.664-1.269-4.79-2.544-5.122-5.743-.779-9.935 2.589-.09 4.923.054 8.481.272-1.563 1.399-1.757 1.707-2.021 1.788-2.158.665-4.329 1.288-6.496 1.923 1.592 1.595 3.32 3.077 4.737 4.814 1.473 1.806 2.644 3.859 3.945 6.151m67.908-7.097c1.451-5.501-2.945-5.596-6.35-6.52l.71-1.177h14.225l.188 1.18-5.717 1.574c0 4.749 0 9.645.058 15.001-1.806 2.53-2.785 1.764-2.913-.61-.162-2.99-.092-5.995-.2-9.448"/><path fill="#aeafb5" d="M1710.548 933.645c3.373-1.032 6.434-2.028 9.573-2.488 1.425-.208 3.716.251 1.201 2.78-6.64-.829-10.026 1.153-10.69 6.17-.783 5.903 1.758 7.938 11.681 9.359-5 4.089-13.38 1.23-14.208-5.362-.41-3.26 1.372-6.795 2.443-10.46m-27.098 17.554c-3.794.146-3.354-2.283-3.462-4.8.141-5.28.357-10.157.573-15.034l2.402.06v17.037l8.484.757.074 1.622c-2.544.096-5.088.193-8.07.358"/><path fill="#33353e" d="M1670.01 948.081c-.245.062-.638-.161-1.066-.749.283-.088.601.188 1.067.75"/><path fill="#b6b8be" d="M1443.524 931.077c.233 5.562.13 10.844.175 16.126.027 3.144-1.357 4.443-4.501 4.398-7.097-.102-14.197-.03-21.761.047-9.894-.615-10.386 1.923-10.235-10.29.174-14.11-1.11-12.144 12.222-12.215 6.13-.032 12.266-.092 18.39.118 1.828.063 3.626 1 5.71 1.816m-4.476.95h-28.796c0 5.21-.122 9.825.113 14.422.043.824 1.548 2.24 2.398 2.256 9.09.164 18.185.102 28.266.102-.389-5.802-.747-11.144-1.98-16.78"/><path fill="#aeafb5" d="M1417.352 954.281c5.844-.32 11.56-.32 17.276-.32l-.016 2.73c-3.234.097-6.468.194-10.153.357-2.492-1.367-6.46 2.405-7.107-2.767"/><path fill="#b6b8be" d="M687.467 945.023c-3.232.014-6.017.095-8.763-.196-.785-.083-1.457-1.242-2.18-1.908.75-.632 1.46-1.743 2.257-1.81 2.756-.227 5.542-.09 8.771-.169 4.402-.005 8.358-.065 12.288.226.987.073 1.891 1.27 2.833 1.952-.964.586-1.904 1.623-2.897 1.678-3.94.218-7.897.129-12.31.227m856.179-8.001c.79 2.644 2 5.25 1.635 7.61-.653 4.216-4.895 6.762-8.814 6.109-3.916-.652-7.044-4.5-6.899-8.488.162-4.438 2.991-6.974 8.95-7.7 1.855.773 3.347 1.547 5.128 2.469m-6.169 9.587c1.378-1.501 2.981-2.877 3.944-4.61.196-.351-2.004-2.887-3.128-2.907-1.41-.026-4.084 1.594-4.028 2.34.128 1.724 1.575 3.349 3.212 5.177m-683.539-14.151c.7-1.09 1.473-1.729 2.247-2.367.488.737 1.347 1.45 1.398 2.217.176 2.608.068 5.235.068 8.64 2.356 0 4.43-.197 6.442.07 1.372.18 2.658 1.01 3.982 1.55-1.245.62-2.469 1.286-3.746 1.829-.419.178-.974.036-1.878.108-4.046-.78-5.295.877-4.958 4.32.114 1.154.225 2.383-.056 3.477-.238.924-1.045 1.701-1.6 2.544-.586-.797-1.601-1.553-1.68-2.396-.227-2.456-.08-4.947-.08-8.128-2.942 0-5.534.136-8.097-.075-.882-.072-1.692-1.012-2.535-1.555.812-.564 1.587-1.538 2.443-1.615 2.455-.22 4.943-.078 8.125-.078 0-2.913 0-5.502-.075-8.541"/><path fill="#3b3c45" d="M261.954 329.955c3.267-3.316 6.294-6.372 9.835-9.946l14.61 15.309h-29.452a5654 5654 0 0 0 5.007-5.363"/><path fill="#33353e" d="M274.973 588.971c-1.018 1.35-1.787 2.449-1.865 2.56l-15.285-14.263h28.564a26866 26866 0 0 1-11.414 11.703"/><path fill="#383942" d="M395.852 467.851a215 215 0 0 1-3.615 3.026v-26.55l13.396 13.82z"/><path fill="#3b3c45" d="M144.67 465.33a2158 2158 0 0 0-8.615-7.718l14.6-13.2v25.812l-1.25 1.139a465 465 0 0 0-4.734-6.033"/><path fill="#363942" d="M2106.2 301.198c1.04-.219 2.404-.413 2.662.033 6.138 10.612 12.158 21.294 18.51 32.514h-39.731c6.281-11.02 12.325-21.622 18.56-32.547"/><path fill="#383942" d="M1974.999 438.263c5.125-.002 9.753-.002 14.74-.002v36.518h-35.801v-36.514c7.04 0 13.8 0 21.06-.002m286.271 32.901c-7.995 8.084-17.8 10.372-27.046 6.544-8.468-3.506-13.68-11.976-13.48-21.903.247-12.26 9.534-21.494 21.96-21.834 12.454-.34 22.241 8.301 23.274 20.504.51 6.028-.706 11.557-4.708 16.69"/><path fill="#3b3c45" d="M1864.888 933.817c1.888 1.11 3.352 2.246 4.817 3.383l-5.518 4.098-1.78-1.339c.686-2.038 1.372-4.077 2.481-6.142"/><path fill="#4d4e58" d="M1846.426 942.035c.576-2.184 1.226-4.003 1.876-5.822l1.115-.197 2.214 6.771c-2.194-.166-3.662-.277-5.205-.752"/><path fill="#383942" d="M1439.486 932.175c.796 5.488 1.154 10.83 1.543 16.632-10.081 0-19.176.062-28.266-.102-.85-.016-2.355-1.432-2.398-2.256-.235-4.597-.113-9.212-.113-14.422 9.969 0 19.383 0 29.234.148"/><path fill="#393b44" d="M1537.113 946.527c-1.274-1.746-2.721-3.371-2.85-5.094-.055-.747 2.618-2.367 4.03-2.341 1.123.02 3.323 2.556 3.127 2.908-.963 1.732-2.566 3.108-4.307 4.527"/></svg>