<svg xmlns="http://www.w3.org/2000/svg" width="777" height="1614" viewBox="0 0 777 1614"><path fill="#fcfdfd" d="m250.847 70.733 3.642-.014q4.994-.014 9.986-.01c3.594 0 7.187-.01 10.78-.02q10.556-.023 21.112-.023 8.584-.001 17.168-.012a41366 41366 0 0 1 54.005-.024c14.19 0 28.38-.019 42.569-.047q21.867-.043 43.735-.04c8.181 0 16.362-.005 24.544-.027q10.45-.028 20.9-.009c3.552.006 7.104.007 10.656-.01 3.858-.02 7.716-.007 11.574.009l3.369-.032c10.315.091 19.114 2.798 27.105 9.471 8.149 8.34 10.317 17.738 10.261 28.973l.01 2.997c.007 3.329 0 6.657-.006 9.986l.01 7.244q.012 7.913.005 15.825c-.006 7.896 0 15.793.007 23.689q.018 20.186.013 40.372a58281 58281 0 0 0 .015 54.053 210106 210106 0 0 1 .028 121.622v2.963q.001 32.49.01 64.98l.006 26.746v2.986a704929 704929 0 0 1 .02 223.491q-.002 101.03.04 202.06.012 25.455.021 50.912l.001 3.167a314111 314111 0 0 1 .023 99.653 648603 648603 0 0 1 .001 96.287q.001 47.226.029 94.453a98856 98856 0 0 1 .003 108.248l-.001 2.6c-.005 13.605.004 27.21.018 40.814q.022 20.055-.002 40.108-.015 11.764.012 23.529c.012 5.816.004 11.631-.013 17.447q-.005 3.515.01 7.03c.014 3.175.003 6.35-.014 9.526l.03 2.744c-.118 10.416-4.052 17.91-11.154 25.35-5.834 5.403-12.487 9.444-20.6 9.457l-3.147.02-3.437-.01-3.667.014q-5.034.014-10.067.01c-3.62 0-7.24.01-10.861.02q-10.64.023-21.278.023-8.65.002-17.301.012-24.533.026-49.065.025h-5.347c-14.3-.001-28.6.018-42.9.046q-22.032.043-44.065.04c-8.244 0-16.488.006-24.732.027q-10.531.028-21.063.009c-3.58-.006-7.16-.007-10.74.01-3.887.02-7.774.007-11.66-.009l-3.404.032c-11.058-.097-18.852-3.4-26.842-11.026-7.462-8.483-9.506-18.448-9.453-29.395l-.01-2.99c-.008-3.32-.002-6.64.004-9.96q-.005-3.614-.012-7.227-.012-7.892-.006-15.785.005-11.814-.01-23.63a36642 36642 0 0 1-.018-40.272q0-20.41-.012-40.821l-.001-2.603-.007-10.494a203387 203387 0 0 1-.042-124.28q-.005-32.413-.016-64.825l-.008-26.684v-2.978a670651 670651 0 0 1-.034-222.974q-.004-100.785-.061-201.569c-.028-50.1-.053-100.202-.06-150.303v-3.055a524230 524230 0 0 1-.005-96.071c-.001-31.406-.017-62.812-.04-94.219a79098 79098 0 0 1-.01-107.997v-2.595c.006-13.569-.006-27.137-.024-40.706q-.028-20.008 0-40.017a5414 5414 0 0 0-.016-23.465 2791 2791 0 0 1 .015-17.417q.007-3.502-.014-7.005c-.075-13.72.258-24.613 7.766-36.538 9.825-8.97 18.683-11.928 31.722-11.892"/><path fill="#e0e2e4" d="M265.645 52.477c3.605.01 7.21-.005 10.816-.016a5074 5074 0 0 1 21.13-.002q8.592.013 17.185.006l2.48-.002 4.987-.004c15.556-.011 31.111.002 46.666.023q19.984.025 39.967-.003a21396 21396 0 0 1 51.482-.014l2.468.002q8.574.003 17.15-.012 10.46-.017 20.92.013c3.552.01 7.104.015 10.656.001 20.868-.071 38.428.687 54.57 15.492 7.475 8.113 13.999 19.98 14.005 31.267l.009 2.556-.006 2.802.006 2.998q.006 5.023.001 10.046l.008 7.266q.008 7.95.008 15.9.001 11.901.012 23.803.016 20.281.021 40.562.006 20.563.019 41.125l.001 2.621.007 10.566q.037 64.085.055 128.17l.013 41.558a1244437 1244437 0 0 1 .062 233.59v3.193l.008 38.45q.019 103.124.083 206.248c.03 49.392.058 98.783.067 148.175l.001 3.078a548162 548162 0 0 1 .011 93.794v2.975q.007 47.451.049 94.902a81061 81061 0 0 1 .022 108.794v2.615c-.004 13.667.009 27.335.03 41.002q.029 20.157.003 40.314-.016 11.82.02 23.637c.016 5.85.007 11.7-.013 17.55q-.007 3.525.015 7.054c.094 17.14-1.283 30.697-12.639 44.428l-1.512 1.887c-8.259 9.257-21.193 15.242-33.456 16.39-3.227.11-6.441.128-9.67.11l-3.717.017c-3.375.012-6.749.01-10.123.003-3.651-.005-7.302.008-10.953.018-7.14.017-14.281.018-21.422.013q-8.708-.006-17.417.002l-2.509.003-5.047.004c-15.755.014-31.51.009-47.265-.003-14.399-.01-28.798.003-43.197.027q-22.207.037-44.415.027-12.455-.006-24.911.017-10.602.022-21.203-.002a1622 1622 0 0 0-10.807.004c-3.913.017-7.825.002-11.738-.016l-3.417.03c-14.457-.135-26.514-6.388-36.928-16.14-10.622-11.074-14.621-24.548-14.546-39.58l-.01-3.013c-.007-3.334 0-6.668.006-10.002l-.01-7.27q-.012-7.931-.005-15.862c.006-7.915 0-15.83-.007-23.746q-.018-20.235-.013-40.47.003-20.51-.007-41.017l-.002-2.616-.006-10.55a211191 211191 0 0 1-.028-121.916v-2.97q-.001-32.57-.01-65.14l-.006-26.817v-2.993a708591 708591 0 0 1-.02-224.06q.002-101.274-.04-202.55l-.021-51.038-.001-3.174q-.019-48.418-.023-96.836v-3.07a651994 651994 0 0 1-.001-96.539q-.001-47.34-.029-94.682a99342 99342 0 0 1-.003-108.517l.001-2.607c.005-13.636-.004-27.27-.018-40.906q-.022-20.104.002-40.208.015-11.79-.012-23.581c-.012-5.832-.004-11.665.013-17.497q.005-3.52-.01-7.041c-.08-18.73 1.78-33.213 15.263-47.373 16.528-15.668 35.333-15.354 56.895-15.273m-47.211 31.437c-5.259 7.88-6.884 15.892-6.811 25.23l-.013 2.998c-.011 3.318 0 6.635.01 9.952q-.006 3.618-.014 7.235-.014 7.892-.003 15.783c.01 7.876.005 15.752-.004 23.628q-.022 20.136-.01 40.27.01 20.408-.001 40.814l-.002 2.604-.006 10.496a140674 140674 0 0 0-.015 124.269 194249 194249 0 0 1-.007 73.687l-.004 23.774c-.01 55.33-.016 110.658-.008 165.987v3.161l.006 34.897v3.183l.002 12.742q.015 100.773-.02 201.548l-.019 53.944q-.015 48.178-.017 96.356v3.055a622733 622733 0 0 0 .006 96.061q.003 47.108-.02 94.213a99852 99852 0 0 0 .01 110.575q.008 20.352-.014 40.703-.019 20.004.008 40.01.016 11.73-.01 23.463-.013 8.706.016 17.41.005 3.504-.01 7.007c-.068 16.357.332 29.272 12.106 41.71 8.002 7.57 17.166 8.914 27.807 8.842l3.675.024c3.341.017 6.681.016 10.022.007 3.613-.005 7.226.013 10.839.028 7.068.026 14.136.03 21.204.025q8.62-.005 17.243.008l2.483.004 4.995.007c15.598.022 31.196.017 46.794.005 14.253-.01 28.506.012 42.76.05q21.98.06 43.963.048c8.22-.004 16.439.001 24.659.03q10.495.037 20.992.002c3.566-.012 7.131-.014 10.698.01 3.875.026 7.75.005 11.625-.02l3.375.044c10.149-.139 18.316-3.794 25.776-10.668 3.394-3.683 5.635-7.5 7.5-12.125l1.034-2.018c1.373-4.238 1.24-8.224 1.218-12.653l.009-2.99c.007-3.332 0-6.664-.007-9.996l.01-7.24q.01-7.914.003-15.828c-.007-7.9-.003-15.799.003-23.698q.016-20.191.009-40.383-.006-20.47.002-40.94l.001-2.61.005-10.52a210182 210182 0 0 0 .015-121.66v-2.965q-.003-32.497.004-64.996l.002-14.834.001-5.953v-2.98l.002-5.97a739379 739379 0 0 0 .006-207.574v-3.191l-.002-12.778q-.007-101.06.021-202.12l.015-54.093q.012-48.306.014-96.612v-3.063a844455 844455 0 0 0-.003-96.303q0-47.241.017-94.482a134436 134436 0 0 0-.003-108.278l-.001-2.602q-.005-20.415.011-40.83.015-20.06-.004-40.12-.011-11.768.007-23.538c.01-5.817.003-11.633-.01-17.45q-.004-3.518.007-7.034c.01-3.176.002-6.35-.011-9.526l.022-2.752c-.082-9.648-3.029-18.09-9.397-25.42-9.546-8.377-18.78-10.455-31.214-10.388l-3.653-.016c-3.324-.012-6.647-.01-9.971-.003-3.593.005-7.186-.008-10.78-.018-7.03-.017-14.06-.018-21.092-.013q-8.574.006-17.148-.002l-2.469-.003-4.965-.004a28638 28638 0 0 0-46.525.003c-14.177.01-28.354-.003-42.531-.027q-21.857-.037-43.712-.027-12.262.007-24.525-.017-10.438-.022-20.876.002c-3.547.009-7.095.011-10.642-.004a1272 1272 0 0 0-11.556.016l-3.371-.03c-11.657.11-22.012 4.25-29.536 13.445"/><path fill="#e1e4e6" d="m370.688 208.203 3.44-.017q3.596-.006 7.191.032c3.669.032 7.333 0 11.001-.038q3.496.005 6.993.023l3.32-.037c4.818.09 7.548.265 11.567 3.054 3.218 4.998 2.407 11.356 2.288 17.053l-.021 3.876a1041 1041 0 0 1-.124 10.15c-.051 3.458-.074 6.918-.099 10.377Q416.16 262.839 416 273l2.162-.034q10.106-.15 20.214-.225c3.464-.026 6.927-.061 10.391-.118 3.987-.065 7.973-.09 11.96-.111l3.75-.078c9.603-.004 9.603-.004 13.29 2.972 2.916 3.388 3.36 4.885 3.394 9.24l.03 2.923.012 3.17.017 3.25q.014 3.411.02 6.822c.01 3.477.04 6.953.072 10.43q.01 3.311.016 6.622l.038 3.151c-.029 9.264-.029 9.264-3.366 12.986-3.298 2.089-5.915 2.244-9.778 2.227h-3.518l-3.782-.032-3.884-.008c-3.4-.008-6.8-.028-10.2-.05-3.472-.02-6.944-.03-10.416-.04A6319 6319 0 0 1 416 336l.027 2.206q.12 10.307.18 20.613c.021 3.532.05 7.064.095 10.596.052 4.064.071 8.127.089 12.19l.062 3.833.001 3.578.027 3.143c-.606 3.581-1.994 5.245-4.481 7.841-2.429 1.214-4.023 1.146-6.738 1.177l-2.984.039-3.235.022-3.319.025q-3.48.02-6.963.032c-3.549.017-7.097.061-10.646.105q-3.38.015-6.76.026l-3.217.053c-7.381-.022-7.381-.022-11.285-2.38-2.976-3.37-2.976-5.319-2.967-9.742v-3.58l.016-3.879.005-3.96q.006-5.213.024-10.425.014-5.319.02-10.638.016-10.437.049-20.875l-2.206.034q-10.307.15-20.613.225a1220 1220 0 0 0-10.596.118c-4.064.065-8.127.09-12.19.111l-3.833.078c-9.768.004-9.768.004-12.837-2.972-2.284-3.435-2.856-5.15-2.918-9.224l-.049-2.914c-.044-4.404-.085-8.808-.108-13.212a747 747 0 0 0-.082-6.966 838 838 0 0 1-.091-10.044l-.07-3.135c.024-8.054.024-8.054 3-11.739 3.661-3.333 5.296-3.484 10.144-3.474h3.519l3.813.016 3.892.005q5.125.006 10.249.024 5.227.014 10.456.02 10.26.016 20.52.049l-.034-2.162q-.15-10.106-.225-20.214a1161 1161 0 0 0-.118-10.391c-.065-3.987-.09-7.973-.111-11.96l-.078-3.75c-.004-9.623-.004-9.623 2.366-13.303 4.825-3.347 9.139-3.08 14.887-3.017"/><path fill="#808387" d="M265.645 52.477c3.605.01 7.21-.005 10.816-.016a5074 5074 0 0 1 21.13-.002q8.592.013 17.185.006l2.48-.002 4.987-.004c15.556-.011 31.111.002 46.666.023q19.984.025 39.967-.003a21396 21396 0 0 1 51.482-.014l2.468.002q8.574.003 17.15-.012 10.46-.017 20.92.013c3.552.01 7.104.015 10.656.001 20.868-.071 38.428.687 54.57 15.492 7.475 8.113 13.999 19.98 14.005 31.267l.009 2.556-.006 2.802.006 2.998q.006 5.023.001 10.046l.008 7.266q.008 7.95.008 15.9.001 11.901.012 23.803.016 20.281.021 40.562.006 20.563.019 41.125l.001 2.621.007 10.566q.037 64.085.055 128.17l.013 41.558a1244437 1244437 0 0 1 .062 233.59v3.193l.008 38.45q.019 103.124.083 206.248c.03 49.392.058 98.783.067 148.175l.001 3.078a548162 548162 0 0 1 .011 93.794v2.975q.007 47.451.049 94.902a81061 81061 0 0 1 .022 108.794v2.615c-.004 13.667.009 27.335.03 41.002q.029 20.157.003 40.314-.016 11.82.02 23.637c.016 5.85.007 11.7-.013 17.55q-.007 3.525.015 7.054c.094 17.14-1.283 30.697-12.639 44.428l-1.512 1.887c-8.259 9.257-21.193 15.242-33.456 16.39-3.227.11-6.441.128-9.67.11l-3.717.017c-3.375.012-6.749.01-10.123.003-3.651-.005-7.302.008-10.953.018-7.14.017-14.281.018-21.422.013q-8.708-.006-17.417.002l-2.509.003-5.047.004c-15.755.014-31.51.009-47.265-.003-14.399-.01-28.798.003-43.197.027q-22.207.037-44.415.027-12.455-.006-24.911.017-10.602.022-21.203-.002a1622 1622 0 0 0-10.807.004c-3.913.017-7.825.002-11.738-.016l-3.417.03c-14.457-.135-26.514-6.388-36.928-16.14-10.622-11.074-14.621-24.548-14.546-39.58l-.01-3.013c-.007-3.334 0-6.668.006-10.002l-.01-7.27q-.012-7.931-.005-15.862c.006-7.915 0-15.83-.007-23.746q-.018-20.235-.013-40.47.003-20.51-.007-41.017l-.002-2.616-.006-10.55a211191 211191 0 0 1-.028-121.916v-2.97q-.001-32.57-.01-65.14l-.006-26.817v-2.993a708591 708591 0 0 1-.02-224.06q.002-101.274-.04-202.55l-.021-51.038-.001-3.174q-.019-48.418-.023-96.836v-3.07a651994 651994 0 0 1-.001-96.539q-.001-47.34-.029-94.682a99342 99342 0 0 1-.003-108.517l.001-2.607c.005-13.636-.004-27.27-.018-40.906q-.022-20.104.002-40.208.015-11.79-.012-23.581c-.012-5.832-.004-11.665.013-17.497q.005-3.52-.01-7.041c-.08-18.73 1.78-33.213 15.263-47.373 16.528-15.668 35.333-15.354 56.895-15.273M209 75c-4.374 5.853-7.013 12.011-9 19l-1 3a62 62 0 0 0-.127 4.086l-.009 2.539.006 2.796-.006 2.98q-.006 5.004-.001 10.006l-.008 7.23q-.008 7.917-.008 15.83-.001 11.85-.012 23.7a72795 72795 0 0 0-.021 40.384 118776 118776 0 0 1-.027 54.075q-.037 63.806-.055 127.612l-.013 41.38a1233571 1233571 0 0 0-.062 232.586v3.18l-.008 38.287q-.019 102.678-.083 205.355c-.03 49.175-.058 98.35-.067 147.526l-.001 3.064a543492 543492 0 0 0-.011 93.397v2.963q-.007 47.242-.049 94.486a80362 80362 0 0 0-.022 108.332v2.604c.004 13.607-.009 27.213-.03 40.82q-.029 20.072-.003 40.145c.009 7.843.005 15.686-.02 23.53-.016 5.827-.007 11.654.013 17.481q.007 3.51-.015 7.02c-.097 17.53.782 34.204 13.639 47.606 12.096 10.421 23.308 14.308 39.098 14.274l3.652.016q4.991.017 9.983.015c3.596.002 7.192.015 10.788.027 7.856.022 15.712.03 23.567.035q7.367.006 14.733.017a33387 33387 0 0 0 54.08.042c14.197.004 28.393.03 42.59.068q21.894.057 43.79.058c8.186 0 16.373.009 24.56.038q10.46.038 20.919.017c3.552-.008 7.104-.007 10.656.016 20.068.121 36.28-.441 51.76-14.615 9.953-10.235 12.984-21.99 12.953-35.811l.005-2.996q.006-5.001 0-10.002l.007-7.248q.007-7.921.007-15.843-.001-11.857.009-23.716.014-20.21.016-40.418.003-20.486.013-40.973l.002-2.612.005-10.531c.022-42.568.032-85.136.041-127.704l.014-56.173q.029-101.055.041-202.108l.002-15.877.005-41.487q.012-102.75.062-205.502c.024-49.216.045-98.432.052-147.649v-3.066a675098 675098 0 0 0 .008-93.455v-2.964q.006-47.28.037-94.562a100339 100339 0 0 0 .016-108.392v-2.606q-.004-20.427.022-40.854.024-20.083.003-40.165-.013-11.775.014-23.552c.013-5.827.006-11.653-.01-17.48q-.005-3.516.011-7.031c.073-16.548-.46-29.952-11.511-43.231l-1.621-1.96C554.845 63.763 544.029 59.046 533 58c-3.947-.146-7.89-.144-11.84-.14l-3.603-.01q-4.933-.01-9.865-.01-5.328-.005-10.655-.016-11.64-.02-23.282-.024l-14.55-.012q-20.16-.019-40.323-.026h-5.214l-5.238-.002h-2.624q-21.034-.009-42.07-.046-21.62-.035-43.24-.037-12.129.001-24.258-.025-10.33-.023-20.66-.012c-3.51.004-7.02.003-10.529-.011a1886 1886 0 0 0-11.447.004l-3.314-.025C233.449 57.715 220.54 62.656 209 75"/><path fill="#e0e2e4" d="M419 479c12.063 9.232 21.985 22.081 24.758 37.36.867 9.456 1.278 19.547-1.758 28.64l-.93 3.004c-5.612 16.391-16.047 26.684-31.084 34.333-12.307 5.973-28.822 7.316-42.091 3.753A64.6 64.6 0 0 1 359 582l-2.645-1.352C341.505 572.482 332.33 559.924 327 544c-3.809-16.933-1.223-34.4 7.902-49.086 8.936-12.413 21.319-21.55 36.223-25.293 17.34-2.78 33.018-.252 47.875 9.379"/><path fill="#e0e3e5" d="M410.664 1243.574c2.283 1.683 4.303 3.45 6.336 5.426l2.145 2.027c9.016 9.25 11.597 18.91 11.45 31.53-.555 13.017-5.926 23.145-15.22 32.13-10.136 8.535-22.663 10.083-35.408 9.488-10.406-.925-19.664-7.516-26.78-14.8-4.207-5.073-6.2-11.167-8.187-17.375l-.613-1.887c-2.033-11.107-.994-22.638 4.968-32.312 1.451-2.042 2.994-3.918 4.645-5.801.478-.594.956-1.189 1.45-1.8 14.03-15.94 37.665-16.996 55.214-6.626m.274-126.761c9.677 7.164 17.052 16.052 19.062 28.187 1.374 13.665-.363 25.148-8.75 36.438-7.86 9.08-18.92 14.725-30.906 15.8-11.79.308-22.138-2.79-31.344-10.238l-1.86-1.45c-8.338-7.323-12.606-18.393-13.413-29.214-.325-12.644 2.525-22.782 11.273-32.336 14.965-15.45 37.405-18.944 55.938-7.187"/><path fill="#e2e5e6" d="M405.281 743.32c8.913 6.273 15.602 14.84 17.719 25.68.984 12.512-.796 23.297-9.09 33.035-7.528 7.744-15.726 12.042-26.578 12.387C375.15 814.5 366.37 812.24 357 804c-8.606-9.623-10.714-19.614-10.281-32.227.74-9.941 5.262-18.367 12.656-25.086 13.347-10.612 31.096-11.939 45.906-3.367"/><path fill="#dee1e3" d="M303 748c7.122 5.58 11.163 12.49 14 21 .852 12.746-.944 21.977-9 32-6.26 6.612-13.651 10.445-22.727 11.238-10.955.28-20.227-2.616-28.273-10.238-6.99-7.38-10.17-15.956-10.5-26.062.425-11.823 5.076-18.86 13.5-26.938 12.54-11.445 29.402-9.496 43-1"/><path fill="#dfe2e3" d="m486.688 741.438 2.383.002c9.477.283 16.908 4.325 23.929 10.56 1.95 2.621 1.95 2.621 3.688 5.438l1.761 2.808c4.778 8.485 4.814 18.278 2.969 27.738-3.213 9.213-10.542 16.875-19.246 21.121-8.74 3.6-18.415 4.596-27.422 1.27-9.992-4.596-15.49-10.91-20.395-20.637-1.543-4.257-1.818-7.637-1.73-12.113l.033-2.273c.292-10.153 3.325-16.914 10.342-24.352 7.127-6.427 14.113-9.591 23.688-9.562"/><path fill="#e4e2e5" d="M284.688 92.563c8.576 5.081 13.687 11.12 17.312 20.437 2.574 10.427 1.092 20.003-4.32 29.258-4.845 6.963-11.535 12.19-19.68 14.742-10.869 1.764-20.909.433-30-6-7.07-5.264-11.37-13.357-13-22-.938-11.35.73-19.397 8-28.25 11.12-11.426 26.991-15.029 41.688-8.187"/><path fill="#85878b" d="m370.688 208.203 3.44-.017q3.596-.006 7.191.032c3.669.032 7.333 0 11.001-.038q3.496.005 6.993.023l3.32-.037c4.818.09 7.548.265 11.567 3.054 3.218 4.998 2.407 11.356 2.288 17.053l-.021 3.876a1041 1041 0 0 1-.124 10.15c-.051 3.458-.074 6.918-.099 10.377Q416.16 262.839 416 273l2.162-.034q10.106-.15 20.214-.225c3.464-.026 6.927-.061 10.391-.118 3.987-.065 7.973-.09 11.96-.111l3.75-.078c9.603-.004 9.603-.004 13.29 2.972 2.916 3.388 3.36 4.885 3.394 9.24l.03 2.923.012 3.17.017 3.25q.014 3.411.02 6.822c.01 3.477.04 6.953.072 10.43q.01 3.311.016 6.622l.038 3.151c-.029 9.264-.029 9.264-3.366 12.986-3.298 2.089-5.915 2.244-9.778 2.227h-3.518l-3.782-.032-3.884-.008c-3.4-.008-6.8-.028-10.2-.05-3.472-.02-6.944-.03-10.416-.04A6319 6319 0 0 1 416 336l.027 2.206q.12 10.307.18 20.613c.021 3.532.05 7.064.095 10.596.052 4.064.071 8.127.089 12.19l.062 3.833.001 3.578.027 3.143c-.606 3.581-1.994 5.245-4.481 7.841-2.429 1.214-4.023 1.146-6.738 1.177l-2.984.039-3.235.022-3.319.025q-3.48.02-6.963.032c-3.549.017-7.097.061-10.646.105q-3.38.015-6.76.026l-3.217.053c-7.381-.022-7.381-.022-11.285-2.38-2.976-3.37-2.976-5.319-2.967-9.742v-3.58l.016-3.879.005-3.96q.006-5.213.024-10.425.014-5.319.02-10.638.016-10.437.049-20.875l-2.206.034q-10.307.15-20.613.225a1220 1220 0 0 0-10.596.118c-4.064.065-8.127.09-12.19.111l-3.833.078c-9.768.004-9.768.004-12.837-2.972-2.284-3.435-2.856-5.15-2.918-9.224l-.049-2.914c-.044-4.404-.085-8.808-.108-13.212a747 747 0 0 0-.082-6.966 838 838 0 0 1-.091-10.044l-.07-3.135c.024-8.054.024-8.054 3-11.739 3.661-3.333 5.296-3.484 10.144-3.474h3.519l3.813.016 3.892.005q5.125.006 10.249.024 5.227.014 10.456.02 10.26.016 20.52.049l-.034-2.162q-.15-10.106-.225-20.214a1161 1161 0 0 0-.118-10.391c-.065-3.987-.09-7.973-.111-11.96l-.078-3.75c-.004-9.623-.004-9.623 2.366-13.303 4.825-3.347 9.139-3.08 14.887-3.017m-10.449 5.943c-1.785 2.67-1.599 4.69-1.58 7.886l.001 3.76.047 4.063q.009 2.079.013 4.158c.011 3.645.04 7.29.074 10.934.03 3.72.044 7.44.06 11.16q.05 10.947.146 21.893l-2.378-.02q-11.08-.09-22.16-.135c-3.799-.016-7.597-.037-11.395-.071q-5.494-.048-10.99-.059-2.1-.008-4.198-.032a538 538 0 0 0-5.869-.024l-3.378-.02L296 278c-2.116 3.174-2.254 3.972-2.275 7.607l-.029 2.822.003 3.04-.013 3.127a1417 1417 0 0 0-.002 6.546c.003 3.345-.02 6.689-.045 10.034q-.004 3.178-.002 6.355l-.028 3.04.019 2.822-.002 2.482c.24 2.169.24 2.169 1.52 3.892 2.671 1.777 4.694 1.593 7.886 1.574l3.76-.001 4.063-.047q2.079-.009 4.158-.013c3.645-.011 7.29-.04 10.934-.074 3.72-.03 7.44-.044 11.16-.06q10.947-.05 21.893-.146l-.02 2.372q-.09 11.057-.135 22.115c-.016 3.79-.037 7.58-.071 11.37-.033 3.657-.05 7.314-.059 10.97a550 550 0 0 1-.032 4.188 535 535 0 0 0-.024 5.861l-.02 3.372c.153 2.736.153 2.736 1.6 4.611 2.24 1.451 3.615 1.515 6.277 1.513l2.76.02 2.974-.029 3.06.002q3.202-.004 6.405-.029c3.272-.023 6.544-.02 9.816-.014q3.11-.007 6.219-.021l2.974.003 2.76-.03 2.43-.013c2.39-.141 2.39-.141 5.086-2.261.44-2.788.44-2.788.34-6.102v-3.882l-.047-4.211q-.009-2.148-.013-4.296c-.011-3.772-.04-7.543-.074-11.314-.03-3.848-.044-7.695-.06-11.543q-.05-11.325-.146-22.652l2.378.013q11.08.06 22.16.09 5.698.015 11.395.048 5.494.032 10.99.039 2.1.004 4.198.021c1.956.015 3.913.016 5.869.016l3.378.014c2.79.028 2.79.028 4.632-2.241.306-2.168.306-2.168.259-4.693l.019-2.953-.012-3.198.005-3.273q.002-3.43-.01-6.86c-.011-3.509 0-7.017.012-10.527q0-3.326-.007-6.652l.012-3.198-.02-2.953c0-.86-.002-1.72-.004-2.606-.063-2.307-.063-2.307-2.254-4.087-2.752-.293-2.752-.293-6.01-.227h-3.822l-4.145.032-4.228.008c-3.713.008-7.425.028-11.137.05-3.787.02-7.574.03-11.361.04-7.432.02-14.865.055-22.297.097l.02-2.378q.09-11.08.135-22.16c.016-3.799.037-7.597.071-11.395q.048-5.494.059-10.99.008-2.1.032-4.198c.022-1.956.023-3.913.024-5.869l.02-3.378L411 215c-3.152-2.101-3.916-2.254-7.516-2.275l-2.76-.029-2.974.003-3.06-.013q-3.202-.008-6.405-.002c-3.272.003-6.544-.02-9.816-.045q-3.11-.004-6.219-.002l-2.974-.028-2.76.019-2.43-.002c-2.135.243-2.135.243-3.847 1.52"/><path fill="#72767d" d="M366.563 1446.938c4.185 1.293 5.035 2.456 7.437 6.062a81 81 0 0 1 2.36 7.488l.588 2.131a891 891 0 0 1 1.802 6.694q.621 2.279 1.246 4.556 1.52 5.561 3.004 11.131c1.728-3.128 2.611-6.1 3.402-9.578l.76-3.27 1.54-6.757c1.395-6.006 2.965-11.685 5.298-17.395h12a311 311 0 0 1-4.812 21.063l-.795 3.015c-1.643 6.196-3.316 12.384-5.08 18.547l-.576 2.059c-1.561 5.335-3.04 9.185-7.737 12.316-3.375.5-3.375.5-7 0-5.909-4.81-7.096-11.89-9-19q-.566-2.003-1.137-4.004c-3.12-11.158-3.12-11.158-2.863-15.996h-2l-.32 3.8c-.628 5.626-2.036 10.946-3.555 16.388l-.777 2.904c-3.484 12.665-3.484 12.665-8.348 15.908-6.161.672-6.161.672-9.065-1.654-6.32-7.662-8.211-19.396-10.56-28.846l-.867-3.395c-1.948-7.676-3.748-15.383-5.508-23.105h12c2.37 6.825 4.288 13.687 6.063 20.688 2.2 8.734 2.2 8.734 4.937 17.312 1.941-6.452 3.786-12.878 5.203-19.465l.622-2.835q.605-2.79 1.16-5.59c.912-4.164 1.493-6.55 4.452-9.723 2.563-1.387 2.563-1.387 6.125-1.45"/><path fill="#828589" d="M265.645 52.477c3.605.01 7.21-.005 10.816-.016a5074 5074 0 0 1 21.13-.002q8.592.013 17.185.006l2.48-.002 4.987-.004c15.556-.011 31.111.002 46.666.023q19.984.025 39.967-.003a21396 21396 0 0 1 51.482-.014l2.468.002q8.574.003 17.15-.012 10.46-.017 20.92.013c3.552.01 7.104.015 10.656.001 21.115-.072 38.045.854 54.448 15.531-.312 1.937-.312 1.937-1 4l-3 1c-1.762-1.293-1.762-1.293-3.687-3.188-10.675-9.832-23.24-10.963-37.153-10.952l-3.603-.01q-4.933-.01-9.865-.01-5.328-.005-10.655-.016-11.64-.02-23.282-.024l-14.55-.012q-20.16-.019-40.323-.026h-5.214l-5.238-.002h-2.624q-21.034-.009-42.07-.046-21.62-.035-43.24-.037-12.129.001-24.258-.025-10.33-.023-20.66-.012c-3.51.004-7.02.003-10.529-.011a1886 1886 0 0 0-11.447.004l-3.314-.025c-15.438.098-27.617 4.185-38.92 14.732-8.752 9.834-11.627 21.042-11.747 33.82l-.051 2.875c-.053 3.01-.094 6.018-.132 9.027a3545 3545 0 0 1-.143 9.039q-.048 2.8-.08 5.603c-.157 9.886-.157 9.886-1.215 14.296-2.046 1.691-2.046 1.691-4 3-.102-7.755-.172-15.51-.22-23.267q-.03-3.951-.082-7.902c-.049-3.803-.071-7.606-.089-11.41l-.062-3.523c-.004-14.529 5.22-26.665 15.203-37.148 16.528-15.668 35.333-15.354 56.895-15.273"/><path fill="#878a8d" d="M419 479c12.063 9.232 21.985 22.081 24.758 37.36.867 9.456 1.278 19.547-1.758 28.64l-.93 3.004c-5.612 16.391-16.047 26.684-31.084 34.333-12.307 5.973-28.822 7.316-42.091 3.753A64.6 64.6 0 0 1 359 582l-2.645-1.352C341.505 572.482 332.33 559.924 327 544c-3.809-16.933-1.223-34.4 7.902-49.086 8.936-12.413 21.319-21.55 36.223-25.293 17.34-2.78 33.018-.252 47.875 9.379m-74.898 12.348c-8.585 10.834-13.698 22.447-13.602 36.34l.017 2.92c.316 12.702 4.546 22.467 12.483 32.392l1.844 2.496c7.31 8.49 19.6 15.65 30.779 16.766 17.982 1.094 30.726-2.106 45.502-12.45 9.7-8.6 16.814-22.126 18.096-35.04.871-17.374-3.084-30.657-14.534-44.022-9.631-10.275-21.587-16.14-35.632-16.988-17.328-.46-32.804 4.663-44.953 17.586"/><path fill="#86898d" d="M410.938 1116.813c9.677 7.164 17.052 16.052 19.062 28.187 1.374 13.665-.363 25.148-8.75 36.438-7.86 9.08-18.92 14.725-30.906 15.8-11.79.308-22.138-2.79-31.344-10.238l-1.86-1.45c-8.338-7.323-12.606-18.393-13.413-29.214-.325-12.644 2.525-22.782 11.273-32.336 14.965-15.45 37.405-18.944 55.938-7.187m-55.551 14.101c-6.11 9.191-7.623 18.192-6.387 29.086 2.37 11.318 8.36 20.508 18 27 3.588 1.642 7.212 2.906 11 4l1.988.578c10.74 2.252 20.35-.649 29.621-6.117 7.984-5.653 12.774-14.133 15.391-23.461.414-2.993.478-5.919.438-8.937l-.023-2.4c-.169-5.968-1.038-10.634-4.415-15.663l-1.355-2.098c-6.225-8.927-14.616-15.283-25.395-17.578-15.262-2.199-29.205 3.471-38.863 15.59"/><path fill="#888b8e" d="M410.664 1243.574c2.283 1.683 4.303 3.45 6.336 5.426l2.145 2.027c9.016 9.25 11.597 18.91 11.45 31.53-.555 13.017-5.926 23.145-15.22 32.13-10.136 8.535-22.663 10.083-35.408 9.488-10.406-.925-19.664-7.516-26.78-14.8-4.207-5.073-6.2-11.167-8.187-17.375l-.613-1.887c-2.033-11.107-.994-22.638 4.968-32.312 1.451-2.042 2.994-3.918 4.645-5.801.478-.594.956-1.189 1.45-1.8 14.03-15.94 37.665-16.996 55.214-6.626m-52.976 11.801c-8.178 9.676-9.44 19.3-8.863 31.654.846 9.54 6.207 17.344 13.054 23.721 9.371 7.573 19.222 9.465 31.042 8.512 10.167-1.28 18.603-6.442 25.079-14.262 6.97-11.45 9.357-23.75 6.316-36.973-.934-2.197-1.97-4.057-3.316-6.027l-1.32-2.059c-6.393-9.239-14.186-14.931-25.157-17.527-14.646-2.403-26.808 2.21-36.836 12.961"/><path fill="#86888c" d="M405.281 743.32c8.913 6.273 15.602 14.84 17.719 25.68.984 12.512-.796 23.297-9.09 33.035-7.528 7.744-15.726 12.042-26.578 12.387C375.15 814.5 366.37 812.24 357 804c-8.606-9.623-10.714-19.614-10.281-32.227.74-9.941 5.262-18.367 12.656-25.086 13.347-10.612 31.096-11.939 45.906-3.367M359 754c-6.767 9.843-7.972 18.278-7 30 1.57 7.75 6.014 13.933 12 19 8.797 5.43 17.566 8.75 27.902 6.316 10.233-3.11 17.587-8.028 23.098-17.316 4.045-7.892 4.226-17.204 2.414-25.77-3.024-8.809-9.433-16.017-17.664-20.293-13.581-6.235-30.871-3.63-40.75 8.063"/><path fill="#63b4e4" d="M384 754c3.538 1.51 5.834 3.576 8.547 6.281l2.558 2.551 2.645 2.668 2.691 2.668 2.543 2.55 2.335 2.343C407 775 407 775 407 777h-8v19h-29v-19h-8c1.495-3.625 3.543-5.59 6.5-8.125 5.41-4.74 10.463-9.742 15.5-14.875"/><path fill="#87898d" d="M303 748c7.122 5.58 11.163 12.49 14 21 .852 12.746-.944 21.977-9 32-6.26 6.612-13.651 10.445-22.727 11.238-10.955.28-20.227-2.616-28.273-10.238-6.99-7.38-10.17-15.956-10.5-26.062.425-11.823 5.076-18.86 13.5-26.938 12.54-11.445 29.402-9.496 43-1m-44 8c-6.5 8.192-7.968 16.716-7 27 2.09 8.578 6.652 14.988 14 19.813 7.867 4.495 15.77 5.62 24.684 3.57 8.519-3.004 15.172-8.484 19.378-16.508 3.146-7.863 3.523-16.813.375-24.75-4.698-8.87-11.549-14.877-20.875-18.437-12.082-2.332-21.713.686-30.562 9.312"/><path fill="#898b8f" d="M411 217h1l1 27 2 1c1.124 6.162 1.122 12.252 1.063 18.5l-.014 2.781q-.018 3.36-.049 6.719l2.162-.034q10.106-.15 20.214-.225c3.464-.026 6.927-.061 10.391-.118 3.987-.065 7.973-.09 11.96-.111l3.75-.078c9.603-.004 9.603-.004 13.29 2.972 2.916 3.388 3.36 4.885 3.394 9.24l.03 2.923.012 3.17.017 3.25q.014 3.411.02 6.822c.01 3.477.04 6.953.072 10.43q.01 3.311.016 6.622l.038 3.151c-.029 9.264-.029 9.264-3.366 12.986-3.298 2.089-5.915 2.244-9.778 2.227h-3.518l-3.782-.032-3.884-.008c-3.4-.008-6.8-.028-10.2-.05-3.472-.02-6.944-.03-10.416-.04A6319 6319 0 0 1 416 336v-1l8-1-4-3 2.043-.031q10.486-.163 20.973-.341 3.92-.065 7.837-.125 5.619-.088 11.237-.187l3.564-.05 3.275-.06 2.9-.048c2.15.081 2.15.081 3.171-1.158a73 73 0 0 0 .13-4.596l.009-2.962-.006-3.223.003-3.285q0-3.444-.006-6.89-.006-5.293.007-10.587 0-3.337-.004-6.676l.006-3.223-.01-2.962-.002-2.622c.091-1.976.091-1.976-1.127-2.974-1.963-.124-3.93-.178-5.897-.205l-3.822-.06q-2.08-.027-4.16-.051l-4.233-.063q-5.58-.082-11.161-.153-6.69-.091-13.381-.19c-6.782-.099-13.564-.187-20.346-.278z"/><path fill="#87898d" d="m486.688 741.438 2.383.002c9.477.283 16.908 4.325 23.929 10.56 1.95 2.621 1.95 2.621 3.688 5.438l1.761 2.808c4.778 8.485 4.814 18.278 2.969 27.738-3.213 9.213-10.542 16.875-19.246 21.121-8.74 3.6-18.415 4.596-27.422 1.27-9.992-4.596-15.49-10.91-20.395-20.637-1.543-4.257-1.818-7.637-1.73-12.113l.033-2.273c.292-10.153 3.325-16.914 10.342-24.352 7.127-6.427 14.113-9.591 23.688-9.562m-24.063 17.355c-5.21 7.076-6.7 14.56-5.625 23.207 3.14 10.098 7.268 16.477 16.492 21.707 6.543 3.373 13.246 4.371 20.508 3.293 8.456-2.966 15.593-7.427 20.309-15.14 3.784-7.909 4.442-17.53 1.703-25.868A57 57 0 0 0 512 759l-1.687-2.75c-7.308-7.11-15.107-9.605-25.051-9.63-10.107.225-16.29 4.457-22.637 12.173"/><path fill="#888b8f" d="M284.688 92.563c8.576 5.081 13.687 11.12 17.312 20.437 2.574 10.427 1.092 20.003-4.32 29.258-4.845 6.963-11.535 12.19-19.68 14.742-10.869 1.764-20.909.433-30-6-7.07-5.264-11.37-13.357-13-22-.938-11.35.73-19.397 8-28.25 11.12-11.426 26.991-15.029 41.688-8.187m-37.563 11.187c-5.518 6.992-7.857 13.29-7.504 22.262C240.7 134.516 244.558 141.38 251 147c6.677 5.072 13.907 6.005 22.082 5.547 8.022-1.12 14.798-5.095 19.703-11.578 4.513-7.313 6.416-14.393 5.215-22.969-1.989-7.642-5.61-14.106-12.281-18.504-12.969-7.39-27.998-6.923-38.594 4.254"/><path fill="#929599" d="M265.85 52.536c3.634.017 7.268.011 10.901.008q9.42-.002 18.838.033c9.079.033 18.157.043 27.236.048q22.1.015 44.199.073 21.453.056 42.908.082l2.676.003 13.294.016c36.7.041 73.399.111 110.098.201v1l-280 1 1 2-3.043.332C236.261 59.344 221.372 62.097 209 76c-6.68 10.07-9.268 19.26-9.379 31.16l-.051 2.875c-.053 3.01-.094 6.018-.132 9.028a3545 3545 0 0 1-.143 9.038q-.048 2.8-.08 5.603c-.157 9.886-.157 9.886-1.215 14.296-2.046 1.691-2.046 1.691-4 3-.102-7.755-.172-15.51-.22-23.267q-.03-3.951-.082-7.902c-.049-3.803-.071-7.606-.089-11.41l-.062-3.523c-.004-14.529 5.22-26.665 15.203-37.148 16.598-15.735 35.453-15.345 57.1-15.214"/><path fill="#898b8f" d="M358 218h1v60l-63 1c-1.22 2.44-1.12 3.999-1.114 6.725v3.014l.016 3.175.003 2.913c.006 3.6.02 7.199.033 10.798L295 330l60 1v1h-19v2l18 1v1q-11.409.176-22.819.26a1220 1220 0 0 0-10.596.117c-4.064.065-8.127.09-12.19.111l-3.833.078c-9.768.004-9.768.004-12.837-2.972-2.284-3.435-2.856-5.15-2.918-9.224l-.049-2.914c-.044-4.404-.085-8.808-.108-13.212a747 747 0 0 0-.082-6.966 838 838 0 0 1-.091-10.044l-.07-3.135c.024-8.054.024-8.054 3-11.739 3.356-3.055 4.76-3.486 9.163-3.458l2.715.01 2.84.026 2.863.013q3.507.018 7.012.049v1l-2.59.184-3.348.253-3.34.247c-2.633.02-2.633.02-3.722 1.316l55 1z"/><path fill="#818388" d="M385.063 505.938 388 506c3.81 9.588 7.5 19.209 10.938 28.938l.927 2.598.85 2.429.754 2.144C402 544 402 544 402 547h-6a665 665 0 0 1-1.5-4.312l-.844-2.426C393 538 393 538 393 535l-16 1-4 12h-6c2.288-8.098 5.049-16.02 7.871-23.944q1.143-3.216 2.277-6.437l1.454-4.092 1.322-3.726c1.455-3.788 1.455-3.788 5.139-3.863"/><path fill="#71757a" d="M493 1381h24v25h-24z"/><path fill="#6ec5f1" d="M257 1381h24v24h-24z"/><path fill="#ece0e3" d="M268 103h4l2 5 7 1-1 3-4-2c.546 3.823 2.238 5.41 5 8 1.608 3.217 1.468 6.511 1 10-2.221 4.36-4.436 7.133-9 9-4.05.593-7.083.428-10.812-1.312-3.2-2.47-4.89-3.795-6.188-7.688-.508-6.197.011-8.986 4-14 2.14-2.695 3.39-4.587 4-8h3v19l3-1c.058-3.125.094-6.25.125-9.375l.05-2.695.02-2.578.032-2.38c-.047-2.206-.047-2.206-2.227-3.972"/><path fill="#74787c" d="M415 1382h23v23h-23z"/><path fill="#6f7377" d="M336 1382h23v23h-23z"/><path fill="#7d8289" d="M412 1465h13v40h-13z"/><path fill="#737980" d="M436 1465h12v40h-12z"/><path fill="#929497" d="M283.434 92.125c8.652 4.846 15.08 11.483 18.566 20.875 2.3 9.553 1.35 18.194-3 27-2.568 4.117-4.944 7.296-9 10l-3-2-2-1 2.688-1.875c5.154-4.25 8.877-11.835 9.55-18.473.235-8.581-1.704-14.815-6.425-21.964-6.052-5.783-12.712-8.627-21-9.25l-3.293-.254L264 95v-1h7v-3c4.664-1.555 8.072-.891 12.434 1.125"/><path fill="#82434b" d="m259 110 3 1c-1.08 2.244-2.162 4.224-3.625 6.25-1.843 3.687-1.975 6.7-1.375 10.75 1.76 4.166 3.834 6.24 8 8 4.89.543 6.995.521 11.375-1.75 3.145-2.629 3.145-2.629 4.625-6.25.305-4.805.468-8.714-2-13l-3-1v-4c3.452.256 4.245 1.262 6.688 3.875 3.366 4.549 4.014 8.575 3.312 14.125-1.847 5.835-4.516 9.083-10 12-4.782 1.594-9.436 1.963-14.227.164-5.199-2.901-8.128-6.427-9.773-12.164-.79-4.85-.532-8.01 1.813-12.375 1.66-1.993 3.261-3.892 5.187-5.625"/><path fill="#f9fafb" d="M374.75 835.625c3.33.072 4.284.396 7.25 2.25 2.807 4.386 3.023 8.053 2 13.125-2.062 3.125-2.062 3.125-5 5-3.5.625-3.5.625-7 0-3.57-2.95-5.784-5.1-6.312-9.75.562-5.85 3.257-10.045 9.062-10.625"/><path fill="#fbfbfb" d="M261 174c2.875 1.875 2.875 1.875 5 5 1.036 5.097.822 8.754-2.062 13.125-3.744 2.39-5.578 2.731-9.938 1.875-3.67-3.202-4.791-4.701-5.562-9.5.657-4.09 1.971-6.3 4.562-9.5 2.889-1.444 4.796-1.377 8-1"/><path fill="#8b8d90" d="M391 1264c2.934 1.796 4.472 2.944 6 6 .071 7.107-1.807 11.688-6.785 16.852a215 215 0 0 1-3.727 3.632c-1.59 1.465-1.59 1.465-2.488 3.516h13v3h-21c1.07-4.283 1.435-4.698 4.688-7.25 7.029-5.864 7.029-5.864 10.75-13.965.129-2.413.129-2.413-.438-5.785l-2-2c-3.754.348-7.37.983-11 2v-4c4.236-2.824 8.025-2.667 13-2"/><path fill="#87888b" d="m485 760 4 1v14h15v4h-15v14h-4v-14h-14v-4h14z"/><path fill="#72add0" d="M384 754c3.538 1.51 5.834 3.576 8.547 6.281l2.558 2.551 2.645 2.668 2.691 2.668 2.543 2.55 2.335 2.343C407 775 407 775 407 777h-8v19h-29v-19l2 1v16h26v-18l4-1c-3.753-4.456-7.403-8.397-12-12a115 115 0 0 1-4-5c-3.373.584-5.018 1.642-7.418 4.055l-1.861 1.863-1.909 1.957-1.943 1.934c-3.673 3.61-3.673 3.61-5.869 8.191l2 1h-7c1.495-3.625 3.543-5.59 6.5-8.125 5.41-4.74 10.463-9.742 15.5-14.875"/><path fill="#0a0a0a" d="M387 925.438c3.843.72 5.458 1.571 8 4.562.942 3.999.611 6.981-1.5 10.5-3.519 2.111-6.501 2.442-10.5 1.5-2.991-2.542-3.842-4.157-4.562-8 .941-5.021 3.54-7.621 8.562-8.562"/><path fill="#131312" d="M361 927c2.5 2.188 2.5 2.188 4 5 0 3.56-.612 5.41-2.562 8.375-2.995 1.997-4.977 2.27-8.528 2.07-1.91-.445-1.91-.445-4.473-2.508-1.902-3.886-1.708-5.826-.437-9.937 3.732-4.39 6.584-4.674 12-3"/><path fill="#0e0e0e" d="M420.094 954.586C422 955 422 955 424.5 956.562c2.11 3.43 2.125 5.48 1.5 9.438-2.446 3.381-3.893 4.77-8 5.625-4.074-.849-5.544-2.302-8-5.625-.71-3.785-.278-5.467 1.5-8.875 3.042-2.585 4.7-2.815 8.594-2.54"/><path fill="#0d0f0c" d="M389.094 954.59C391 955 391 955 393.5 956.5c2.111 3.519 2.442 6.501 1.5 10.5-2.542 2.991-4.157 3.842-8 4.563-4.104-.77-5.54-2.234-8-5.563-.71-3.785-.278-5.467 1.5-8.875 3.041-2.585 4.7-2.818 8.594-2.535"/><path fill="#0a0a0a" d="M360 955c2.5 1.5 2.5 1.5 4 4 .604 2.81.66 5.198 0 8-2.535 2.982-4.187 3.83-8 4.625-3.462-.721-5.054-1.988-7.152-4.836-1.5-3.164-.826-5.548.152-8.789 2.285-4.167 6.77-3.74 11-3"/><path fill="#949598" d="M299 331h56v1h-19v2l18 1v1h-59v-1l8-1z"/><path fill="#0c0c0c" d="M360 983c2.5 1.5 2.5 1.5 4 4 .605 2.81.654 5.195 0 8-2.062 2.563-2.062 2.563-5 4-4.264.075-6.237-.352-9.5-3.125-1.978-3.791-1.631-5.803-.5-9.875 2.285-4.167 6.77-3.74 11-3"/><path fill="#10100f" d="M418 925.375c4.107.856 5.554 2.244 8 5.625.625 3.958.61 6.009-1.5 9.438-3.032 1.894-5.06 2.202-8.594 2.011C414 942 414 942 411.5 939.875c-1.778-3.408-2.21-5.09-1.5-8.875 2.456-3.323 3.926-4.776 8-5.625"/><path fill="#0a0a0a" d="M422 983c2.5 1.563 2.5 1.563 4 4 .45 3.602.412 6.021-1 9.375-2.596 2.11-4.676 2.657-7.988 2.914C415 999 415 999 411.938 996.5c-1.908-2.756-1.938-3.622-1.938-7.187 1.972-6.534 5.322-7.495 12-6.313"/><path fill="#090909" d="M387 1010.438c3.805.713 5.451 1.638 8 4.562.625 3.438.625 3.438 0 7-2.446 3.381-3.893 4.77-8 5.625-4.074-.849-5.544-2.302-8-5.625-.625-3-.625-3 0-6 2.46-3.329 3.896-4.793 8-5.562"/><path fill="#101110" d="M391 983c2.438 1.563 2.438 1.563 4 4 .725 4.429.495 6.28-2.062 10-2.938 2-2.938 2-6.5 2.125-4.103-1.343-5.444-2.304-7.438-6.125 0-3.78.167-6.007 2.625-8.937 3.352-1.5 5.745-1.517 9.375-1.063"/><path fill="#0f0e0e" d="M421 1011c2.875 1.563 2.875 1.563 5 4 .625 3.438.625 3.438 0 7-2.442 3.376-3.923 4.753-8 5.688-3.43-.786-5.062-2.06-7.148-4.899-1.526-3.204-.901-5.519.148-8.789 2.924-3.357 5.694-3.615 10-3"/><path fill="#0f0f0f" d="M356 1010.438c3.843.72 5.458 1.571 8 4.562.717 2.823.717 5.177 0 8-2.535 2.982-4.187 3.83-8 4.625-3-.625-3-.625-5.875-3.312-2.125-3.313-2.125-3.313-2.75-5.876 1.192-4.649 3.958-7.124 8.625-8"/><path fill="#939598" d="M420 331h52v1l-16 1c2.12 2.12 6.62 1.418 9.563 1.563l2.443.13q2.997.159 5.994.307v1h-58v-1l8-1z"/><path fill="#98999d" d="M411 217h1v60l37-1-1-3h23l-3 1v2l4 2h-61z"/><path fill="#7f8285" d="M412 331c9 0 9 0 13 1l1 3h-10a2204 2204 0 0 1 .11 13.562q.015 2.308.04 4.615c.025 2.21.036 4.418.045 6.628l.032 2.09c0 1.703-.105 3.406-.227 5.105l-2 2c-.648 2.57-.648 2.57-1 5h-1z"/><path fill="#8c8e93" d="M552.945 58.39c4.875 2.57 8.956 5.957 13.055 9.61-.312 1.938-.312 1.938-1 4l-3 1c-1.762-1.293-1.762-1.293-3.687-3.187-7.27-6.696-15.546-9.64-25.313-10.813l-1-3c6.33-4.483 14.658-.33 20.945 2.39"/><path fill="#86898d" d="M309 302h37l-1 5h-35z"/><path fill="#7b7e83" d="m383 229 5 1v35l-5 1z"/><path fill="#85888b" d="M428.418 301.886q2.277 0 4.555.016l2.417.005c2.557.005 5.115.018 7.673.03l5.189.014q6.375.017 12.748.049l-1 5h-35l-1-4c1-1 1-1 4.418-1.114"/><path fill="#7c8084" d="m383 346 5 1v34l-5 1z"/><path fill="#8c8f93" d="M308 174c8 0 8 0 10.5 1.188C320 177 320 177 320.375 179.5 320 182 320 182 318 185l1 1.688c1.131 2.615 1.157 4.493 1 7.312h-2l-1.25-3.437c-1.317-3.658-1.317-3.658-3.937-4.5L311 186v8h-3z"/><path fill="#898b8e" d="M390 1137v34h-4v-29l-4 2h-3v-4c4.202-2.346 6.011-3 11-3"/><path fill="#889093" d="M389 836c1.86.121 1.86.121 4 1 1.266 2.723 1.266 2.723 2.25 6.063l1.016 3.347L397 849c1.827-2.74 2.937-5.138 4.125-8.187l1.07-2.731L403 836h4v20h-2v-15h-2l-.367 1.793c-.9 4.245-1.838 8.231-3.633 12.207h-3a958 958 0 0 1-2-5.312l-1.125-2.989C392 844 392 844 392 841h-2v15h-2q-.04-4.156-.062-8.312l-.026-2.381-.01-2.295-.016-2.11C388 839 388 839 389 836"/><path fill="#777e83" d="M442.563 1444.063c4.915 1.34 4.915 1.34 6.437 3.937.535 3.594.448 5.319-1.562 8.375-3.337 2.225-5.507 2.125-9.438 1.625-1.937-1.062-1.937-1.062-3-3-.499-3.92-.553-6.116 1.563-9.5 2.437-1.5 2.437-1.5 6-1.437"/><path fill="#6a7279" d="M421 1444c2.375 1.563 2.375 1.563 4 4 .425 3.462.639 5.835-1.062 8.938-3.141 1.722-5.436 1.553-8.938 1.062-2.695-2.419-3.806-4.008-4.5-7.562 1.185-5.775 4.988-7.357 10.5-6.438"/><path fill="#d5f5fa" d="M256 1380q6.219-.041 12.438-.062l3.587-.026 3.409-.01 3.158-.016C281 1380 281 1380 282 1381c.1 1.842.13 3.687.133 5.531l.004 3.395-.012 3.574.012 3.574-.004 3.395-.004 3.138C282 1406 282 1406 281 1407c-3.415.568-6.868.848-10.312 1.188l-2.92.326-2.819.279-2.583.266c-2.68-.067-4.138-.59-6.366-2.059-1.432-4.24-1.399-9.046-1.687-13.5l-.182-2.262-.143-2.207-.14-1.982c.194-2.616 1.093-4.666 2.152-7.049m1 1v24h24v-24z"/><path fill="#8b8e91" d="M269 175h2l3 13 4-13h3a647 647 0 0 1 1.5 4.75l.844 2.672C284 185 284 185 284 189h2l.375-3.625c.448-3.651 1.33-6.92 2.625-10.375h2a1940 1940 0 0 1-1.375 6.125l-.773 3.445c-.798 3.214-1.76 6.306-2.852 9.43l-3-1c-.95-2.723-.95-2.723-1.687-6.062l-.762-3.348L280 181q-.721 2.124-1.437 4.25l-.81 2.39A85 85 0 0 0 276 194l-4-1q-.757-3.374-1.5-6.75l-.844-3.797C269 179 269 179 269 175"/><path fill="#7d383e" d="m259 110 3 1c-1.08 2.244-2.162 4.224-3.625 6.25-1.843 3.687-1.975 6.7-1.375 10.75 2.226 5.271 5.712 7.034 10.813 9.188L270 138c-2 2-2 2-4.75 2.375-4.206-.485-6.054-1.596-9.25-4.375-3.376-4.615-4.66-9.196-4.395-14.89.867-4.636 3.979-8.036 7.395-11.11"/><path fill="#8e9094" d="m256 55 1 2-3.043.332C243.423 58.533 232.837 59.828 223 64l-2-2c.813-2.312.813-2.312 3-5 9.918-4.455 21.505-3.72 32-2"/><path fill="#84bfd9" d="M257 1381h24v24h-24zm2 2-.062 9.938-.028 3.136-.008 2.453-.016 2.524c-.102 1.954-.102 1.954 1.114 2.949 1.489.087 2.981.107 4.473.098l2.453-.008 3.137-.027L280 1404v-21z"/><path fill="#88898c" d="M235 175h9l3 3c-.125 3.063-.125 3.063-1 6-3.435 2.29-4.985 2.178-9 2v8h-2z"/><path fill="#d1ebfa" d="M388 753v2l1.813.313c2.525.793 3.536 1.643 5.187 3.687l1 3a108 108 0 0 0 6.922 6.703c1.845 1.698 3.55 3.307 5.078 5.297-.062 2.938-.062 2.938-1 5l-4 1 .125 3.563c.015 4.161-.813 7.502-2.125 11.437h-1v-18h7c-6.473-7.835-13.778-14.868-21-22-3.402 1.614-6.103 3.586-9 6 .313-2.875.313-2.875 1-6 3.644-2.43 5.712-2.162 10-2"/><path fill="#86888b" d="M266 775h32v4h-32z"/><path fill="#8c9295" d="M374.75 835.625c3.33.072 4.284.396 7.25 2.25 2.807 4.386 3.023 8.053 2 13.125-2.062 3.125-2.062 3.125-5 5-3.5.625-3.5.625-7 0-3.57-2.95-5.784-5.1-6.312-9.75.562-5.85 3.257-10.045 9.062-10.625m-4.687 3.875c-1.515 3.563-1.626 6.686-1.063 10.5.932 2.58.932 2.58 3 4 2.957.75 2.957.75 6 0 3.174-2.756 3.924-4.38 4.438-8.562-.533-4.382-.533-4.382-3.438-7.438-3.682-.526-5.923-.834-8.937 1.5"/><path fill="#dcf2fc" d="M379 778h11v11h-11z"/><path fill="#9ea5a7" d="M348 836h2v8h10v-8h3v20h-3v-10h-10v10h-2z"/><path fill="#98999b" d="M261 174c2.875 1.875 2.875 1.875 5 5 1.036 5.097.822 8.754-2.062 13.125-3.744 2.39-5.578 2.731-9.938 1.875-3.67-3.202-4.791-4.701-5.562-9.5.657-4.09 1.971-6.3 4.562-9.5 2.889-1.444 4.796-1.377 8-1m-7.812 3.438c-1.73 3.732-1.948 7.517-1.188 11.562 1.206 1.852 1.206 1.852 3 3 3.578 0 3.578 0 7-1 2.454-3.68 2.697-6.724 2-11-1.99-2.948-3.077-3.82-6.562-4.5-2.49.32-2.49.32-4.25 1.938"/><path fill="#d8d9de" d="M384 513c2.873 3.326 3.97 6.555 5.188 10.75l1.042 3.547L391 530h-12c1.208-5.95 2.746-11.364 5-17"/><path fill="#131313" d="M419.063 900.125C422 901 422 901 424 904c-.187 3.063-.187 3.063-1 6-3 2-3 2-6.062 1.813C414 911 414 911 412 908c.207-2.767.703-4.53 2.188-6.875 1.812-1.125 1.812-1.125 4.875-1"/><path fill="#0f0f0f" d="M357.063 900.188C360 901 360 901 362 903c.334 3.137.528 5.166-1.187 7.875-2.468 1.532-3.958 1.553-6.813 1.125-1.812-1.125-1.812-1.125-3-3-.397-3.176-.5-5.14 1.125-7.937C354 900 354 900 357.063 900.188"/><path fill="#121212" d="m387.5 1043.688 3.5.312c2 3 2 3 1.813 6.063C392 1053 392 1053 389 1055c-3.062-.187-3.062-.187-6-1-2-3-2-3-1.75-5.562 1.21-3.932 2.14-4.384 6.25-4.75"/><path fill="#101110" d="M417.938 1043.688c3.062.312 3.062.312 5 1.437 1.062 1.875 1.062 1.875.937 4.938C423 1053 423 1053 420 1055c-3.062-.187-3.062-.187-6-1-2-3-2-3-1.75-5.562 1.1-3.576 1.946-4.352 5.688-4.75"/><path fill="#171818" d="M386.938 900.688c3.062.312 3.062.312 5 1.437C393 904 393 904 392.875 907.063 392 910 392 910 389 912c-3.062-.187-3.062-.187-6-1-2-3-2-3-1.75-5.562 1.1-3.576 1.946-4.352 5.688-4.75"/><path fill="#090909" d="M356.5 1043.75c3.5.25 3.5.25 5.5 2.25.334 3.137.528 5.166-1.187 7.875-2.468 1.532-3.958 1.553-6.813 1.125-1.812-1.125-1.812-1.125-3-3-.312-3.062-.312-3.062 0-6 2-2 2-2 5.5-2.25"/><path fill="#7a8487" d="M412 836h11v2h-9v6h8v2h-8v8h9v2h-11z"/><path fill="#888d8e" d="M294 174h10v2h-8v7h8v2h-8v7h9v2h-11z"/><path fill="#814047" d="m268 104 3 1v19l-4 1q-.042-4.968-.062-9.937l-.026-2.866-.01-2.724-.016-2.524C267 105 267 105 268 104"/><path fill="#828488" d="M476 274c2.905 2.249 3.912 3.32 4.39 7.016l-.14 3.234-.11 3.266L480 290h-3l-.332-2.117-.48-2.758-.458-2.742c-.56-2.727-.56-2.727-3.73-4.383a75 75 0 0 0-5-1l1-3c3.382-1.127 4.648-1.063 8 0"/><path fill="#959b9e" d="M389 836c1.828.027 1.828.027 4 1a59 59 0 0 1 2.75 7.563l.668 2.154A406 406 0 0 1 398 852l-3 1a665 665 0 0 1-1.5-4.312l-.844-2.426C392 844 392 844 392 841h-2v15h-2q-.04-4.156-.062-8.312l-.026-2.381-.01-2.295-.016-2.11C388 839 388 839 389 836"/><path fill="#80bada" d="M377 777q3.468-.04 6.938-.062l3.902-.036C391 777 391 777 392 778c.144 4.002.042 7.994 0 12h-15c-1.125-10.75-1.125-10.75 0-13m2 1v11h11v-11z"/><path fill="#808487" d="m381 1290 1 4h15v3h-21c1.074-4.294 1.508-4.747 5-7"/><path fill="#909397" d="m383 229 5 1v35h-1l-1-27-3 2z"/><path fill="#7b2e33" d="M255 127c2 1 2 1 3.313 3.375 2.819 4.386 6.926 5.857 11.687 7.625-2 2-2 2-4.75 2.375-4.106-.474-6.073-1.763-9.25-4.375-2.187-2.989-3-4.28-3-8z"/><path fill="#9b9ca1" d="m411 1360 5 1c.37 5.415.37 5.415-1.5 8.375L413 1371l-5-1c.75-6.625.75-6.625 3-10"/><path fill="#9c9da2" d="m424 1360 5 1c.366 4.273-.592 6.488-3 10l-5-1c-.37-5.415-.37-5.415 1.5-8.375z"/><path fill="#959799" d="M269 175h2l3 13 3-10c2.312 4.625 1.973 5.479.625 10.25l-.898 3.266L276 194l-4-1q-.757-3.374-1.5-6.75l-.844-3.797C269 179 269 179 269 175"/><path fill="#8d8f92" d="M387 347h1v34l-5 1v-8l3-1z"/><path fill="#a6a8ab" d="M522 1360c2.625.375 2.625.375 5 1-.603 6.396-.603 6.396-2.312 9-1.688 1-1.688 1-3.875.688L519 1370c.75-7.75.75-7.75 3-10"/><path fill="#a3a4a8" d="m485 1360 5 1c-.565 3.958-1.809 6.666-4 10l-4-1c-.75-1.625-.75-1.625-1-4 1.938-3.25 1.938-3.25 4-6"/><path fill="#9a9ba0" d="m436 1360 5 1c-.75 7.75-.75 7.75-3 10-2.625-.375-2.625-.375-5-1 .75-6.625.75-6.625 3-10"/><path fill="#a9aaad" d="m497 1360 5 1c-.507 3.719-1.116 6.735-3 10l-5-1c.75-6.625.75-6.625 3-10"/><path fill="#a7a9ac" d="m509 1360 6 1c-.565 3.958-1.809 6.666-4 10l-4-1c-.18-3.947-.094-6.598 2-10"/><path fill="#a4a6a9" d="M353 1360c2.625.375 2.625.375 5 1-.498 3.735-.875 5.812-3 9-2.625.188-2.625.188-5 0 .75-7.75.75-7.75 3-10"/><path fill="#b1b3b5" d="m268 1360 5 1c-.498 3.735-.875 5.812-3 9-2.625.188-2.625.188-5 0 .75-6.625.75-6.625 3-10"/><path fill="#888a8e" d="M328 273h24v1h-5v3q-2.687.079-5.375.125l-3.023.07C336 277 336 277 334 275a90 90 0 0 0-6-1z"/><path fill="#9a9da0" d="M340 1360c2.063.438 2.063.438 4 1-.875 6.75-.875 6.75-2 9h-5c-.687-1.687-.687-1.687-1-4 1.148-2.244 2.21-4.21 4-6"/><path fill="#e9edf0" d="M381 779h7c.625 2.313.625 2.313 1 5l-2 3c-3.125.188-3.125.188-6 0z"/><path fill="#7a3d43" d="M276 110c3.38.25 4.281 1.281 6.75 3.75 2.261 3.266 2.813 4.42 2.25 8.25l-3 1c-3-5.75-3-5.75-3-8l-3-1z"/><path fill="#f6f6f7" d="M237 176c2.375-.125 2.375-.125 5 0 2 2 2 2 2.125 4.625L244 183l-7 1z"/><path fill="#696d73" d="m413 1465 3 1-1 2a209 209 0 0 0-.316 7.852l-.063 2.345q-.097 3.714-.183 7.428l-.131 5.031q-.161 6.173-.307 12.344h7v1h-8z"/><path fill="#7b8588" d="M348 836h2v9h10v1h-10v10h-2z"/><path fill="#cde5f3" d="M388 753v2l1.813.313c2.47.776 3.51 1.758 5.187 3.687l-1 2c-3.058-1.736-5.634-3.385-8-6-3.436 1.527-6.12 3.6-9 6 .313-2.875.313-2.875 1-6 3.644-2.43 5.712-2.162 10-2"/><path fill="#d1ebf9" d="M363 777h7v19c-2.858-2.858-2.408-5.147-2.625-9.125l-.227-3.883L367 780h-3z"/><path fill="#80c7ea" d="M276 1383h4v21h-11v-1h9q.08-3.593.125-7.187l.05-2.042c.04-4.06-.375-7.121-2.175-10.771"/><path fill="#f5dbe0" d="m282 111 3 2v2h2l.438 3.313c.445 3.618.445 3.618 1.562 6.687-.777 2.043-.777 2.043-1.937 4.188l-1.153 2.167L285 133l-1-2 1-3c.551-6.505-.676-10.421-4-16z"/><path fill="#999e9f" d="M371 836q3.012.43 6 1v1l-6 2-.367 2.152-.508 2.785-.492 2.778L369 850l-2 1c-1.433-2.866-1.306-4.813-1-8 1.5-2.565 2.892-4.892 5-7"/><path fill="#8c8f92" d="M359 209c2.383.023 2.383.023 5.125.375l2.758.336L369 210l-1 3-2.082.184-2.73.254-2.708.246c-2.607.25-2.607.25-5.48 1.316 1.152-2.468 2.048-4.048 4-6"/><path fill="#813a41" d="M279 137c-2.052 2.248-3.007 3.002-6 4a81 81 0 0 1-4.687.063l-2.45-.028L264 141l4-2-1-2c4.333-.928 7.667-.928 12 0"/><path fill="#eecacd" d="M251 122h1l.297 1.758c1.196 6.248 2.905 10.91 7.953 15.117L262 140l-3 1c-2.187-1.312-2.187-1.312-4-3v-2h-2c-2.665-5.223-3.329-8.082-2-14"/><path fill="#7eb0cd" d="M375 763c0 3 0 3-1.496 4.719l-1.942 1.781c-2.483 2.288-3.47 3.226-4.562 6.5l2 1h-7c1.545-3.858 3.958-5.985 7.063-8.687l2.722-2.387L374 764z"/><path fill="#f5d4d8" d="M276 114c3 1 3 1 4.688 3.063 1.803 4.035 1.733 6.521 1.312 10.937-1.5 2.5-1.5 2.5-3 4-1-2-1-2-.437-5.812.524-3.669.16-5.836-1.563-9.188z"/><path fill="#f2f5f6" d="M311 177h6v6h-6z"/><path fill="#9b9c9d" d="m243 175 4 3c-.187 2.875-.187 2.875-1 6-2.312 1.5-2.312 1.5-5 2-2.312-.875-2.312-.875-4-2l7-1-2-7z"/><path fill="#a7abad" d="M320 177v5h-3v-5h-6v6l4 1h-5v-8c4.078-.927 6.422-1.34 10 1"/><path fill="#f9d7db" d="M279 133c-4.91 3.927-7.74 4.432-14 4l-1-2h9v-2c3-1 3-1 6 0"/><path fill="#fbeaee" d="M265 105h1v19h-1l-1-10-2 1v-5h2z"/><path fill="#919196" d="M402 1240a136 136 0 0 1 7 3c-3 2-3 2-6 3l-3-2v-3z"/><path fill="#dcf1fb" d="m400 778 2 1c1.52 5.715.981 10.523-1 16h-1z"/><path fill="#d0e8f5" d="m369 766 3 1-10 9-1-3a305 305 0 0 1 3.813-3.562l2.144-2.004z"/><path fill="#81868a" d="M421 1444v1l-2.937.813L415 1447a85 85 0 0 0-2 7l-2-1c-.359-3.23-.273-4.612 1.625-7.312 2.98-2.118 4.797-2.013 8.375-1.688"/><path fill="#cceefe" d="M379 778h1l.684 6.152c.135 1.86.135 1.86 1.316 2.848 2.67.141 5.324.042 8 0v2h-11z"/><path fill="#7ab4d5" d="M390 759q1.693 1.4 3.375 2.813l1.898 1.582C397 765 397 765 399 768c-3.877-.574-6.215-2.293-9-5z"/><path fill="#8c4950" d="m280 130 2 2c-.25 2.563-.25 2.563-1 5l-2 1-4-3z"/><path fill="#a8a9ab" d="M342.188 1360.313 344 1361l-1 4v-3l-2.375 2.375L336 1369c.601-5.411.601-5.411 2.313-7.937 1.687-1.063 1.687-1.063 3.875-.75"/><path fill="#8a8d8f" d="M265 183h1c.37 5.415.37 5.415-1.5 8.375L263 193l-4-1 1.875-1.687c2.186-2.38 3.113-4.277 4.125-7.313"/><path fill="#9ba4a7" d="M403 836h4v8l-2-3-3-1z"/><path fill="#f0d2d7" d="m282 111 3 2v2h2l-1 5c-2.011-2.56-3.628-5.046-5-8z"/><path fill="#7f8184" d="m294 274 3 1-2.375 2.313c-2.698 2.596-2.698 2.596-4.625 5.687-.25-2.25-.25-2.25 0-5 2-2.312 2-2.312 4-4"/><path fill="#e5e8ea" d="m287 182-1 7h-2l-1-6c2-1 2-1 4-1"/><path fill="#7b3138" d="m280 116 3 1v2h2v3l-3 1z"/></svg>